<?xml version="1.0" encoding="UTF-8"?>
<svg version="1.1" xmlns="http://www.w3.org/2000/svg" width="512" height="512">
<path d="M0 0 C0.75771123 -0.00235223 1.51542245 -0.00470446 2.29609463 -0.00712797 C4.84966514 -0.01381532 7.40318473 -0.01335983 9.95676327 -0.01294994 C11.80028722 -0.01624873 13.64381045 -0.01997433 15.48733276 -0.02409142 C20.56496477 -0.03411785 25.64258495 -0.03782925 30.72022545 -0.04048073 C36.19213274 -0.04438189 41.66403066 -0.05396037 47.13593197 -0.0626936 C60.35653026 -0.0824635 73.57712932 -0.09252495 86.7977387 -0.10142139 C93.0220521 -0.10580349 99.24636465 -0.1111705 105.47067738 -0.11641026 C126.15924462 -0.13342318 146.8478114 -0.14794246 167.53638458 -0.155159 C168.87434637 -0.15563375 170.21230817 -0.15610964 171.55026996 -0.15658666 C172.21377475 -0.15682303 172.87727954 -0.15705941 173.56089054 -0.15730295 C176.92249798 -0.15850414 180.28410542 -0.15971959 183.64571285 -0.16094494 C184.31283248 -0.16118509 184.97995212 -0.16142524 185.66728749 -0.16167267 C207.29250462 -0.169564 228.91766688 -0.19299223 250.54286005 -0.22550088 C273.40953793 -0.25981301 296.27619188 -0.27951031 319.14289707 -0.28280324 C331.60643628 -0.28496906 344.06989485 -0.29372836 356.53341007 -0.31926441 C367.14748597 -0.34096084 377.76146163 -0.349027 388.37555719 -0.33929763 C393.79056362 -0.33474989 399.20536318 -0.33666694 404.6203413 -0.35605907 C409.58062565 -0.37366934 414.5405519 -0.37271019 419.50083994 -0.35716178 C421.29229486 -0.35478248 423.08377443 -0.35912594 424.87519164 -0.37099043 C438.43145374 -0.45518907 449.73615655 0.89958039 460.10445309 10.50922108 C460.90882809 11.37547108 461.71320309 12.24172108 462.54195309 13.13422108 C463.38757809 14.04172108 464.23320309 14.94922108 465.10445309 15.88422108 C470.1852685 22.0709553 472.66131805 29.61787174 472.67617416 37.53356838 C472.68063201 38.63611859 472.68508985 39.7386688 472.68968278 40.87462962 C472.68940624 42.69123026 472.68940624 42.69123026 472.68912411 44.54452991 C472.6928008 45.8312945 472.69647748 47.11805909 472.70026559 48.44381654 C472.71027725 52.0183719 472.71400104 55.59291046 472.7166549 59.16747785 C472.72056042 63.02176612 472.73013859 66.87604113 472.73886776 70.73032093 C472.75862516 80.03986579 472.76869747 89.34941174 472.77759555 98.65897232 C472.78197964 103.04393526 472.78734614 107.428897 472.79258442 111.81385899 C472.80959598 126.39206218 472.82408992 140.97026462 472.83133316 155.54847622 C472.83324303 159.33112686 472.83516336 163.11377749 472.8371191 166.89642811 C472.83760284 167.83657727 472.83808658 168.77672642 472.83858498 169.74536495 C472.84688444 184.97352895 472.87222026 200.20161438 472.90469978 215.42974408 C472.93777985 231.06703218 472.95578278 246.70428036 472.9589774 262.34160364 C472.96114162 271.12020864 472.96987738 279.89869906 472.99543858 288.67726994 C473.01715852 296.15385615 473.02518964 303.63029994 473.01547179 311.10691412 C473.01093082 314.91984385 473.01280122 318.73247982 473.03223324 322.54536915 C473.05314498 326.68445559 473.04286775 330.82289217 473.02970028 334.96201038 C473.04615415 336.75853454 473.04615415 336.75853454 473.06294042 338.59135211 C472.97113399 350.55486769 468.77881258 360.18417809 460.79976559 369.07562733 C452.39813641 377.14607195 441.60152752 380.26411954 430.16380978 380.25447559 C428.90185284 380.25585026 427.6398959 380.25722492 426.33969784 380.25864124 C424.95415377 380.25510281 423.56860995 380.25146801 422.18306637 380.24774647 C420.71421975 380.24746419 419.24537299 380.24762312 417.77652645 380.24818897 C413.79972343 380.24847536 409.82295069 380.24260419 405.84615469 380.23561502 C401.6861518 380.22935516 397.52614819 380.22877559 393.36614132 380.22758961 C385.49336492 380.22448405 377.62060245 380.21628112 369.74783218 380.20624012 C360.78293203 380.19505489 351.8180312 380.18956246 342.85312581 380.18454468 C324.41606035 380.17409786 305.97900784 380.15651344 287.54195309 380.13422108 C287.74817445 381.1483674 287.74817445 381.1483674 287.9585619 382.18300152 C288.22895629 383.52178199 288.22895629 383.52178199 288.50481319 384.88760853 C288.6835441 385.76995607 288.86227501 386.65230362 289.046422 387.56138897 C290.10160074 393.03995093 290.71841318 398.58636251 291.40181637 404.12103748 C291.6674224 406.26300585 291.94225448 408.40365907 292.21773434 410.54437733 C292.39146833 411.93102642 292.56466396 413.31774308 292.73726559 414.70453358 C292.89211422 415.93961658 293.04696285 417.17469959 293.20650387 418.44720936 C293.56448635 422.3818902 293.59811363 426.18608043 293.54195309 430.13422108 C294.76301754 430.12374744 295.98408199 430.11327381 297.2421484 430.1024828 C301.77450787 430.06626957 306.30685456 430.04331573 310.83931637 430.0243578 C312.80060127 430.01430325 314.76187119 430.00065775 316.72310543 429.98334217 C319.54296727 429.95906994 322.36263081 429.94773249 325.18257809 429.93890858 C326.0587579 429.92858601 326.93493771 429.91826344 327.83766842 429.90762806 C328.65821712 429.907477 329.47876583 429.90732594 330.32417965 429.9071703 C331.0436578 429.90272907 331.76313595 429.89828785 332.50441647 429.89371204 C334.89525723 430.17592479 336.48412004 430.90248253 338.54195309 432.13422108 C341.35189932 435.77420109 340.8655885 440.26796773 340.87789059 444.66156483 C340.88454739 445.48749638 340.89120419 446.31342793 340.89806271 447.1643877 C340.90817208 448.90845995 340.91288026 450.65257074 340.91255856 452.39667225 C340.9169325 455.05918766 340.95327018 457.72004559 340.99117184 460.38226795 C340.99704031 462.07952793 341.0010095 463.77679575 341.00289059 465.47406483 C341.01726162 466.2669138 341.03163265 467.05976276 341.04643917 467.87663746 C341.04028591 468.62413761 341.03413265 469.37163776 341.02779293 470.14178944 C341.03064297 470.79368748 341.033493 471.44558552 341.03642941 472.11723804 C340.23815794 475.37341015 338.99416739 476.82846858 336.54195309 479.13422108 C333.36406529 479.89549718 330.23137832 479.80862318 326.9765234 479.76913929 C325.5055514 479.78083922 325.5055514 479.78083922 324.00486279 479.79277551 C320.70955559 479.8127643 317.41539443 479.79690342 314.12007809 479.78119373 C311.76146932 479.78796676 309.40286584 479.7968681 307.04427242 479.80774403 C300.63109077 479.83058106 294.21831029 479.82168253 287.80512142 479.8058486 C283.8015789 479.7969694 279.79806397 479.79863237 275.79451656 479.8032999 C275.13012672 479.80406607 274.46573687 479.80483223 273.781214 479.80562162 C272.43156303 479.80722023 271.08191209 479.80884129 269.73226118 479.81048457 C257.07340419 479.82474594 244.41472817 479.80834338 231.75590086 479.78148274 C220.89152554 479.75914352 210.02741733 479.76302354 199.16304684 479.78607655 C186.54983146 479.81282783 173.93677474 479.82337261 161.32353497 479.80801523 C159.97881987 479.80642246 158.63410475 479.80485061 157.28938961 479.8032999 C156.62774595 479.80252853 155.96610228 479.80175715 155.28440881 479.8009624 C150.61942523 479.79664333 145.95459748 479.80418004 141.28963375 479.81569767 C135.01208791 479.83011335 128.73504778 479.82017309 122.45755672 479.79122639 C120.15005999 479.78460014 117.84252088 479.78653932 115.53504086 479.79753971 C112.39190849 479.81114536 109.25041018 479.79413854 106.10738277 479.76913929 C104.72821115 479.7858697 104.72821115 479.7858697 103.32117748 479.8029381 C97.15147904 479.70734227 97.15147904 479.70734227 93.9750185 476.72060013 C92.59416794 474.2284578 92.04387604 472.94084354 92.05611324 470.14178944 C92.04995998 469.39428928 92.04380672 468.64678913 92.037467 467.87663746 C92.05183804 467.08378849 92.06620907 466.29093952 92.08101559 465.47406483 C92.08193203 464.64717655 92.08284847 463.82028828 92.08379269 462.96834278 C92.08981714 461.22596948 92.10552845 459.48360598 92.13033199 457.74139881 C92.16688028 455.077029 92.17135082 452.41405003 92.17085934 449.74945545 C92.18068992 448.05347991 92.19234667 446.35751377 92.20601559 444.66156483 C92.20824123 443.86669163 92.21046688 443.07181843 92.21275997 442.25285816 C92.33725797 434.99016404 92.33725797 434.99016404 94.54195309 432.13422108 C97.38224183 430.43413509 99.46655169 429.88684206 102.75972652 429.9071703 C103.99054958 429.90739689 103.99054958 429.90739689 105.24623775 429.90762806 C106.56050747 429.92311192 106.56050747 429.92311192 107.90132809 429.93890858 C108.80570614 429.94173847 109.71008419 429.94456837 110.64186764 429.94748402 C113.52536504 429.95866326 116.40854984 429.98376374 119.29195309 430.00922108 C121.24897985 430.01925379 123.20601148 430.02837913 125.16304684 430.03656483 C129.95613571 430.05859522 134.74899143 430.09310963 139.54195309 430.13422108 C139.61542965 428.69538563 139.61542965 428.69538563 139.69039059 427.2274828 C140.20123443 417.88665579 141.0767592 408.64245848 142.27144527 399.36517811 C142.54799795 397.21216061 142.81492901 395.05808603 143.08101559 392.90375233 C144.40473495 382.40865736 144.40473495 382.40865736 145.54195309 380.13422108 C144.63628597 380.1386623 143.73061886 380.14310352 142.79750729 380.14767933 C134.26340098 380.18774964 125.72932626 380.21820224 117.19514751 380.23784542 C112.80761611 380.24828364 108.42016242 380.26244357 104.03267574 380.28509998 C99.79869224 380.30682696 95.56478351 380.31878941 91.33074856 380.32397556 C89.71521229 380.32767158 88.09968013 380.33488893 86.48417568 380.34568119 C84.22176925 380.36019426 81.959672 380.36219911 79.69722652 380.36127186 C78.40927181 380.36571308 77.1213171 380.3701543 75.79433346 380.37473011 C70.97698463 380.01849382 70.97698463 380.01849382 68.54195309 378.13422108 C67.88195309 376.48422108 67.22195309 374.83422108 66.54195309 373.13422108 C61.92195309 373.13422108 57.30195309 373.13422108 52.54195309 373.13422108 C51.88195309 374.78422108 51.22195309 376.43422108 50.54195309 378.13422108 C47.65386216 380.18787087 45.174895 380.38982794 41.68843746 380.40887928 C40.72643429 380.41841129 39.76443111 380.42794331 38.77327633 380.43776417 C37.73787716 380.43685276 36.70247799 380.43594135 35.63570309 380.43500233 C34.02217953 380.44143002 34.02217953 380.44143002 32.37605953 380.44798756 C30.09640359 380.45373145 27.81672933 380.45423069 25.53707027 380.44989491 C22.08264094 380.44675802 18.6290876 380.47011346 15.17476559 380.4955492 C12.95341249 380.49782477 10.73205711 380.4985245 8.51070309 380.49750233 C7.49149776 380.50671207 6.47229244 380.51592182 5.42220211 380.52541065 C-6.99877835 380.44704145 -18.45851854 377.67357285 -27.71585941 369.02484608 C-31.93631372 364.50849276 -35.20493313 359.90085388 -37.45804691 354.13422108 C-37.79880568 353.36335258 -38.13956444 352.59248407 -38.49064922 351.79825592 C-39.92380993 346.37013589 -39.73984932 341.08155951 -39.72547245 335.49013233 C-39.73000356 334.20236446 -39.73453468 332.91459659 -39.7392031 331.58780545 C-39.75142312 328.01967511 -39.75117381 324.4516386 -39.74881434 320.88349211 C-39.74840592 317.03262079 -39.75944789 313.18177945 -39.76892948 309.33092213 C-39.78553566 301.7881618 -39.79103888 294.24543273 -39.79215424 286.70265565 C-39.79310502 280.56968832 -39.79721684 274.43673128 -39.80355549 268.3037672 C-39.8211679 250.90827418 -39.83039452 233.51280583 -39.82889454 216.11730383 C-39.82881463 215.1796956 -39.82873472 214.24208738 -39.82865238 213.27606678 C-39.82857062 212.33731094 -39.82848886 211.39855509 -39.82840462 210.4313521 C-39.82759202 195.22338543 -39.8467231 180.01551787 -39.87492912 164.80757985 C-39.90367517 149.18490828 -39.91746842 133.56228502 -39.91574156 117.93958634 C-39.91507819 109.17160557 -39.92054714 100.40372867 -39.94209766 91.63577175 C-39.96033227 84.16913608 -39.96463823 76.70265134 -39.95107882 69.23600302 C-39.94456023 65.42901697 -39.94439137 61.62232029 -39.96178532 57.81536198 C-39.98047973 53.68109966 -39.96793247 49.54750384 -39.95252323 45.41322803 C-39.96281036 44.21982235 -39.97309748 43.02641666 -39.98369634 41.79684716 C-39.89053232 30.46276237 -36.88662883 20.99137525 -29.08304691 12.57172108 C-27.78367191 11.36515858 -27.78367191 11.36515858 -26.45804691 10.13422108 C-25.09679691 8.86578358 -25.09679691 8.86578358 -23.70804691 7.57172108 C-16.74634021 1.85446453 -8.79307975 -0.01850195 0 0 Z " fill="#000001" transform="translate(39.45804691314697,16.865778923034668)"/>
<path d="M0 0 C137.28 0 274.56 0 416 0 C416 82.5 416 165 416 250 C278.72 250 141.44 250 0 250 C0 167.5 0 85 0 0 Z " fill="#EEEEEE" transform="translate(48,65)"/>
<path d="M0 0 C159.06 0 318.12 0 482 0 C482 35.71052632 482 35.71052632 475 44 C468.1022888 49.58513703 461.44923916 52.24800708 452.47793961 52.25333309 C451.20137977 52.25894849 449.92481993 52.26456388 448.60957646 52.27034944 C447.20555782 52.26650048 445.80153965 52.2624728 444.39752197 52.25828552 C442.89631426 52.26114175 441.39510801 52.26488062 439.89390445 52.26942402 C435.77671415 52.27939129 431.65960918 52.27703525 427.54241252 52.27269709 C423.09934535 52.27021871 418.65630049 52.27929171 414.21324158 52.28707886 C406.51731228 52.29911761 398.82140367 52.30423144 391.12546539 52.30496025 C379.99518045 52.30628587 368.86494579 52.32139653 357.7346786 52.34045542 C339.67192085 52.37128892 321.60916184 52.39545997 303.54638672 52.41333008 C301.92511514 52.4149391 301.92511514 52.4149391 300.2710906 52.41658062 C288.20438948 52.42840813 276.13768786 52.43861324 264.07098389 52.44702148 C259.69136555 52.45009559 255.31174722 52.45318434 250.93212891 52.45629883 C249.85138479 52.45706417 248.77064066 52.45782951 247.65714672 52.45861804 C229.65692193 52.47168513 211.65673364 52.49630199 193.65653586 52.53004223 C182.54921413 52.55036279 171.44197039 52.56061743 160.33462992 52.55805302 C152.73115134 52.55702043 145.12773456 52.56661485 137.52427754 52.58469205 C133.13303638 52.5947672 128.7419319 52.59983293 124.35068321 52.59192467 C120.33528747 52.58477892 116.32015872 52.59125303 112.30479714 52.60881007 C110.84803587 52.6127124 109.39125049 52.61148219 107.93449953 52.60475319 C105.96257554 52.59636295 103.99059609 52.60801884 102.01869583 52.62082577 C100.92092166 52.62164022 99.82314749 52.62245468 98.69210744 52.62329382 C95.99292017 52.78330283 95.99292017 52.78330283 94.18633151 54.33619839 C92.8017174 56.10603589 92.8017174 56.10603589 92 59 C86.72 59 81.44 59 76 59 C75.01 56.525 75.01 56.525 74 54 C71.0947941 51.92932989 68.5915911 51.74629814 65.08300781 51.72875977 C64.10809387 51.71857315 63.13317993 51.70838654 62.12872314 51.69789124 C60.55680206 51.69468117 60.55680206 51.69468117 58.953125 51.69140625 C56.72395579 51.66623981 54.49478919 51.64084188 52.265625 51.61523438 C48.75912183 51.58653678 45.25266401 51.56251429 41.74609375 51.54370117 C38.3565292 51.52196707 34.96750203 51.48251421 31.578125 51.44140625 C30.0183493 51.44123253 30.0183493 51.44123253 28.42706299 51.4410553 C19.8142089 51.32471879 13.02770142 49.69751363 6.5390625 43.7421875 C-3.92504248 31.89703313 0 14.30401748 0 0 Z " fill="#BFE2EF" transform="translate(15,330)"/>
<path d="M0 0 C0.75134211 -0.00495952 1.50268423 -0.00991903 2.27679428 -0.01502883 C4.79078284 -0.02796724 7.30423873 -0.01960598 9.81824017 -0.01129913 C11.64032021 -0.01618887 13.46239716 -0.02237906 15.28446883 -0.02975702 C20.28888947 -0.04616918 25.2931527 -0.04383599 30.29759085 -0.03838205 C35.69582056 -0.03571343 41.09400817 -0.05024053 46.49222088 -0.06247711 C57.06718123 -0.08354056 67.64208676 -0.08807143 78.21706561 -0.08628923 C86.81235819 -0.08498203 95.40763365 -0.08878358 104.00292301 -0.09621429 C106.47801628 -0.09831347 108.95310954 -0.10041107 111.42820281 -0.10250711 C112.66009838 -0.10355064 113.89199394 -0.10459417 115.16121968 -0.10566932 C138.46446236 -0.12457547 161.76767356 -0.12352037 185.07092073 -0.11669999 C206.39038522 -0.11112458 227.70969163 -0.13194925 249.02913145 -0.16506046 C270.91775191 -0.19879191 292.80631479 -0.21396645 314.69496173 -0.20934343 C326.98461186 -0.20709816 339.27415093 -0.2123505 351.56377888 -0.23723602 C362.02668984 -0.25824207 372.48942884 -0.26184797 382.95234684 -0.24293643 C388.2903269 -0.23377432 393.62798629 -0.23265042 398.96594143 -0.25329208 C403.85458791 -0.27198716 408.74265074 -0.26751479 413.6312749 -0.24474627 C415.39771996 -0.24055683 417.16420963 -0.24477207 418.93060753 -0.25834221 C429.33321842 -0.33280261 438.37649785 -0.12372105 446.39092571 7.37286997 C453.40691982 14.67932262 454.70994338 21.40113371 454.62448406 31.20938873 C454.62704734 32.28934398 454.62961061 33.36929922 454.63225156 34.48198038 C454.63718666 38.0949282 454.6207005 41.70745668 454.60429668 45.32036591 C454.60345036 47.91249837 454.60392567 50.50463156 454.6056242 53.09676361 C454.60719494 58.67446915 454.59780667 64.25206916 454.58091068 69.82974815 C454.55649811 77.89405278 454.54871311 85.95830654 454.54494671 94.02264411 C454.53838576 107.10742793 454.51843429 120.19215555 454.49003887 133.27690887 C454.46248906 145.98523935 454.44126 158.69355455 454.42851543 171.40190887 C454.42772726 172.18564965 454.42693909 172.96939042 454.42612704 173.77688091 C454.42221184 177.70879712 454.41842074 181.64071343 454.41469133 185.57262981 C454.38360653 218.17616452 454.33055697 250.77962881 454.26372051 283.38311005 C448.32372051 283.38311005 442.38372051 283.38311005 436.26372051 283.38311005 C436.2573726 281.37730252 436.2573726 281.37730252 436.25089645 279.33097363 C436.15028753 247.61026777 436.04459105 215.88958338 435.93260357 184.16891576 C435.91883349 180.26725084 435.90510647 176.36558576 435.89140606 172.46392059 C435.88867775 171.68714768 435.88594945 170.91037477 435.88313847 170.11006329 C435.83902665 157.52177121 435.7984057 144.93347015 435.7590679 132.34516235 C435.71864607 119.43474242 435.67448893 106.52433919 435.62684196 93.61394387 C435.59754406 85.64331768 435.57118277 77.67269275 435.54854154 69.70204482 C435.53088796 63.59694759 435.50804514 57.49188119 435.48322964 51.3868084 C435.47385073 48.87732268 435.46617848 46.36782995 435.4603014 43.85833359 C435.45205451 40.44368011 435.43778175 37.02910448 435.4219389 33.61447906 C435.42047174 32.11011702 435.42047174 32.11011702 435.41897494 30.57536381 C435.41350049 29.66370782 435.40802605 28.75205182 435.40238571 27.81276989 C435.39972767 27.02409076 435.39706963 26.23541164 435.39433104 25.42283314 C435.33776391 23.18031003 435.33776391 23.18031003 434.26372051 20.38311005 C430.79359204 19.22640056 427.70196186 19.24503978 424.09378338 19.25726891 C422.98574287 19.25508874 422.98574287 19.25508874 421.85531771 19.25286454 C419.36049089 19.24919222 416.8657247 19.25269666 414.37089825 19.2561264 C412.57203388 19.25497507 410.77316974 19.25338747 408.97430611 19.25139916 C404.01578348 19.24720749 399.05727998 19.24929581 394.09875727 19.25238538 C388.75718808 19.25463991 383.41562228 19.2511596 378.07405376 19.24840546 C367.60384212 19.24394935 357.13363762 19.24492353 346.66342568 19.2478181 C338.15713298 19.25007275 329.65084229 19.25038438 321.14454937 19.24929428 C319.93576451 19.24914105 318.72697965 19.24898781 317.48156494 19.24882994 C315.02625473 19.24851023 312.57094453 19.24818601 310.11563432 19.24785735 C287.0701511 19.24500302 264.02467185 19.24828884 240.97918928 19.25365771 C221.1876378 19.25812571 201.39609219 19.25734976 181.60454082 19.25273895 C158.64380738 19.24739236 135.68307742 19.24527771 112.72234344 19.24835122 C110.27585952 19.24866978 107.82937559 19.24898415 105.38289165 19.24929428 C104.17904668 19.24944856 102.9752017 19.24960283 101.73487657 19.24976178 C93.23479595 19.25062668 84.73471754 19.24916464 76.23463726 19.24681473 C65.88164071 19.24401559 55.52865175 19.24475741 45.17565608 19.25009547 C39.88931374 19.25273094 34.60298407 19.25374015 29.31664181 19.25044632 C24.48329102 19.2474802 19.64996472 19.2490815 14.81661618 19.25442387 C13.06229016 19.2555467 11.3079621 19.25495983 9.55363739 19.25254808 C7.18028085 19.24953405 4.80700963 19.25259914 2.43365765 19.25726891 C1.74290162 19.25492774 1.05214559 19.25258657 0.34045756 19.25017446 C-2.64084548 19.26200397 -4.88061483 19.43122183 -7.73627949 20.38311005 C-8.67316789 23.19377526 -8.86514532 24.90515628 -8.87494469 27.81276989 C-8.88315635 29.18025388 -8.88315635 29.18025388 -8.89153391 30.57536381 C-8.89251202 31.57827185 -8.89349012 32.58117988 -8.89449787 33.61447906 C-8.89943585 34.67876595 -8.90437383 35.74305284 -8.90946144 36.83959085 C-8.92487961 40.42335018 -8.93320876 44.00709154 -8.94160175 47.59087372 C-8.95117688 50.15286163 -8.96118674 52.71484794 -8.97160053 55.27683258 C-8.9930752 60.80162971 -9.0115118 66.32642382 -9.02720547 71.85124016 C-9.04990119 79.83923187 -9.07804443 87.82719705 -9.10752475 95.81516627 C-9.1552043 108.77457007 -9.1984675 121.7339847 -9.23896503 134.69341278 C-9.27831811 147.28359064 -9.31974388 159.87375885 -9.36396503 172.46392059 C-9.36668931 173.23975127 -9.36941358 174.01558195 -9.3722204 174.81492265 C-9.38589985 178.7069694 -9.39962013 182.59901599 -9.41336071 186.49106252 C-9.52733121 218.78839185 -9.63406591 251.0857413 -9.73627949 283.38311005 C-15.67627949 283.38311005 -21.61627949 283.38311005 -27.73627949 283.38311005 C-27.8504048 250.04871468 -27.93885995 216.71437368 -27.99160613 183.37982626 C-27.99785948 179.44211845 -28.00433111 175.50441103 -28.01093769 171.5667038 C-28.01224924 170.78279522 -28.0135608 169.99888664 -28.01491209 169.19122325 C-28.03665363 156.50736042 -28.07606821 143.8236112 -28.12204347 131.1398157 C-28.16884304 118.11977162 -28.19658227 105.09978694 -28.20672196 92.0796622 C-28.2135739 84.04902606 -28.23519493 76.01871104 -28.27586182 67.98817377 C-28.30547938 61.82464398 -28.30854479 55.66135772 -28.30181789 49.49776649 C-28.30319198 46.97345696 -28.31311828 44.44913512 -28.33230686 41.92489815 C-28.35725825 38.47287267 -28.35117551 35.02221065 -28.33755207 31.57015228 C-28.35211628 30.5759613 -28.36668049 29.58177031 -28.38168603 28.55745232 C-28.2979482 20.68398662 -26.16583195 14.09485216 -20.74644071 8.22954381 C-14.56807808 2.38294058 -8.47077507 -0.07945037 0 0 Z " fill="#56545B" transform="translate(42.73627948760986,31.61688995361328)"/>
<path d="M0 0 C1.31851456 -0.01496269 1.31851456 -0.01496269 2.66366577 -0.03022766 C3.63044754 -0.03089233 4.59722931 -0.03155701 5.5933075 -0.03224182 C6.60969299 -0.04056534 7.62607849 -0.04888885 8.67326355 -0.0574646 C12.0472848 -0.08164225 15.42111299 -0.09034664 18.79521179 -0.09693909 C21.13450175 -0.10590017 23.4737911 -0.11502191 25.81307983 -0.1242981 C30.72339778 -0.14081224 35.63364735 -0.14849251 40.54399109 -0.15138245 C46.83926775 -0.1567658 53.13390259 -0.19443433 59.42899799 -0.24012661 C64.26312612 -0.26985625 69.09709904 -0.27710514 73.93131065 -0.2781086 C76.25218327 -0.28231974 78.57305598 -0.2947896 80.89383888 -0.31562614 C84.14049664 -0.34245184 87.38565838 -0.33774027 90.63237 -0.32521057 C91.59307907 -0.34004486 92.55378815 -0.35487915 93.54360962 -0.37016296 C97.82670753 -0.32304174 100.20350816 -0.09910546 103.90438843 2.19015503 C106.60820321 6.57300876 106.49376704 10.15749447 106.42216492 15.21751404 C106.42771393 16.21483047 106.43326294 17.21214691 106.4389801 18.23968506 C106.45078079 21.53291526 106.42649574 24.82477089 106.40068054 28.11790466 C106.3989695 30.40806516 106.39903505 32.69822761 106.40080261 34.98838806 C106.39914912 39.78679658 106.38044489 44.58473805 106.34892273 49.38304138 C106.30924552 55.53351746 106.30487741 61.68338172 106.31238556 67.83396149 C106.3154552 72.56260278 106.30333485 77.29110655 106.28625488 82.01971436 C106.27922389 84.28751767 106.27610047 86.55533658 106.27694702 88.82315063 C106.2751492 91.99265204 106.2537678 95.1614206 106.22685242 98.33079529 C106.22978302 99.26808975 106.23271362 100.20538422 106.23573303 101.17108154 C106.17288406 105.96820913 106.07672804 109.47363159 102.80693054 113.27415466 C99.95418096 114.99332574 97.83772277 115.52559446 94.52520752 115.53485107 C93.6771051 115.54193588 92.82900269 115.54902069 91.9552002 115.55632019 C90.5719178 115.55260406 90.5719178 115.55260406 89.16069031 115.54881287 C88.18302704 115.5539238 87.20536377 115.55903473 86.19807434 115.56430054 C82.9647663 115.57820601 79.73167119 115.57723906 76.49833679 115.57493591 C74.25158611 115.57882224 72.00483615 115.58315678 69.75808716 115.58792114 C65.0480257 115.59538536 60.3380392 115.59509053 55.62797546 115.58982849 C49.59074219 115.58403284 43.5538156 115.60096639 37.51663303 115.62417316 C32.87638555 115.63890127 28.23621208 115.63978346 23.59594536 115.63666344 C21.36999339 115.63717709 19.14403732 115.64242297 16.91810799 115.65247536 C13.80605736 115.66480466 10.69460626 115.65806891 7.58256531 115.64646912 C6.66240128 115.65411285 5.74223724 115.66175659 4.79418945 115.66963196 C0.0236934 115.63030786 -3.40834839 115.51900007 -7.19306946 112.27415466 C-8.9128622 109.42177035 -9.44450952 107.30485102 -9.45376587 103.99243164 C-9.46085068 103.14432922 -9.46793549 102.29622681 -9.47523499 101.42242432 C-9.47275757 100.50023605 -9.47028015 99.57804779 -9.46772766 98.62791443 C-9.47283859 97.65025116 -9.47794952 96.67258789 -9.48321533 95.66529846 C-9.49712081 92.43199042 -9.49615386 89.19889531 -9.49385071 85.96556091 C-9.49773703 83.71881023 -9.50207157 81.47206028 -9.50683594 79.22531128 C-9.51430015 74.51524982 -9.51400533 69.80526332 -9.50874329 65.09519958 C-9.50294764 59.05796631 -9.51988119 53.02103972 -9.54308796 46.98385715 C-9.55781606 42.34360967 -9.55869826 37.7034362 -9.55557823 33.06316948 C-9.55609188 30.83721751 -9.56133777 28.61126144 -9.57139015 26.38533211 C-9.58371945 23.27328148 -9.57698371 20.16183038 -9.56538391 17.04978943 C-9.57302765 16.1296254 -9.58067139 15.20946136 -9.58854675 14.26141357 C-9.53206834 7.40988845 -8.1309175 0.04936612 0 0 Z " fill="#4BB6E5" transform="translate(340.1930694580078,82.72584533691406)"/>
<path d="M0 0 C1.52764481 -0.01073296 1.52764481 -0.01073296 3.08615112 -0.02168274 C6.44908641 -0.03857754 9.81069027 -0.01916279 13.17358398 0.00219727 C15.51098236 0.00136871 17.84838069 -0.00109016 20.18577576 -0.00511169 C25.08252517 -0.00797017 29.9788173 0.00673822 34.87548828 0.03417969 C41.15618907 0.06828074 47.43607308 0.0622381 53.71681309 0.04351711 C58.5423617 0.03295617 63.36771977 0.04187652 68.19325066 0.05690193 C70.50933199 0.06208955 72.82543317 0.06159495 75.14151192 0.05535698 C78.37602774 0.04991518 81.60936807 0.07024732 84.84375 0.09765625 C85.80334122 0.09113037 86.76293243 0.08460449 87.75160217 0.07788086 C94.21850913 0.17120327 94.21850913 0.17120327 97.42051697 2.47694397 C99.50681817 5.60518812 99.98277771 8.12258882 99.99761963 11.79257202 C100.00332977 12.63929977 100.00903992 13.48602753 100.0149231 14.3584137 C100.01659988 15.747089 100.01659988 15.747089 100.01831055 17.16381836 C100.0257579 18.63009422 100.0257579 18.63009422 100.03335571 20.12599182 C100.0479792 23.364682 100.05477935 26.60332322 100.06030273 29.84204102 C100.06605363 32.09022015 100.07181137 34.33839927 100.07757568 36.58657837 C100.08808593 41.30259429 100.09392858 46.01859315 100.09741211 50.73461914 C100.10289961 56.77970755 100.12693316 62.82457103 100.15538406 68.86958885 C100.17399976 73.51411601 100.17921546 78.15858886 100.18074799 82.80315018 C100.18377699 85.03189958 100.19181384 87.26064796 100.20493317 89.48936081 C100.22197249 92.60628171 100.22011852 95.72265113 100.21362305 98.83959961 C100.22283783 99.76133469 100.23205261 100.68306976 100.24154663 101.63273621 C100.21034304 106.4084933 100.1084473 109.84293284 96.85717773 113.63110352 C94.00471687 115.3507884 91.88790646 115.88254349 88.57545471 115.89179993 C87.72735229 115.89888474 86.87924988 115.90596954 86.00544739 115.91326904 C84.62216499 115.90955292 84.62216499 115.90955292 83.2109375 115.90576172 C82.23327423 115.91087265 81.25561096 115.91598358 80.24832153 115.92124939 C77.0150135 115.93515486 73.78191838 115.93418791 70.54858398 115.93188477 C68.3018333 115.93577109 66.05508335 115.94010563 63.80833435 115.94487 C59.0982729 115.95233421 54.3882864 115.95203939 49.67822266 115.94677734 C43.64098938 115.9409817 37.60406279 115.95791524 31.56688023 115.98112202 C26.92663274 115.99585012 22.28645927 115.99673232 17.64619255 115.99361229 C15.42024058 115.99412594 13.19428451 115.99937183 10.96835518 116.00942421 C7.85630455 116.02175351 4.74485345 116.01501776 1.6328125 116.00341797 C0.71264847 116.01106171 -0.20751556 116.01870544 -1.15556335 116.02658081 C-5.92605941 115.98725671 -9.3581012 115.87594892 -13.14282227 112.63110352 C-14.8789439 109.75688292 -15.39625785 107.61209628 -15.41697693 104.27345276 C-15.43193962 102.97605667 -15.43193962 102.97605667 -15.44720459 101.65245056 C-15.44786926 100.71156082 -15.44853394 99.77067108 -15.44921875 98.80126953 C-15.45754227 97.80409912 -15.46586578 96.80692871 -15.47444153 95.77954102 C-15.49854882 92.4813243 -15.50731391 89.18330525 -15.51391602 85.88500977 C-15.52288062 83.59341878 -15.53200244 81.30182841 -15.54127502 79.01023865 C-15.55776875 74.20603003 -15.56546605 69.40189116 -15.56835938 64.59765625 C-15.57374851 58.43919405 -15.61144959 52.28138611 -15.65710354 46.12310886 C-15.68682995 41.39020893 -15.69408195 36.65746753 -15.69508553 31.92448235 C-15.69929532 29.65384863 -15.71175983 27.38321476 -15.73260307 25.11267281 C-15.7594294 21.93806765 -15.75471779 18.76499228 -15.7421875 15.59033203 C-15.75702179 14.65146652 -15.77185608 13.71260101 -15.78713989 12.74528503 C-15.73960494 8.52058198 -15.49518757 6.20180255 -13.23928833 2.5480957 C-8.80472094 -0.19730207 -5.12463321 -0.06257341 0 0 Z " fill="#040404" transform="translate(81.142822265625,82.368896484375)"/>
<path d="M0 0 C1.54205612 -0.01051392 1.54205612 -0.01051392 3.11526489 -0.02124023 C6.51591952 -0.03885577 9.91574305 -0.02718431 13.31640625 -0.01367188 C15.67765462 -0.01636575 18.03890191 -0.0202473 20.40014648 -0.02526855 C25.34987953 -0.03116845 30.29932393 -0.02258447 35.24902344 -0.00390625 C41.59810867 0.01888315 47.94651759 0.00576276 54.295578 -0.01819611 C59.17172352 -0.03264055 64.04770832 -0.02805422 68.92385864 -0.01768494 C71.26506632 -0.01501392 73.60628853 -0.0183005 75.94747925 -0.02760315 C79.2179843 -0.03774604 82.48738951 -0.02229812 85.7578125 0 C86.7283255 -0.00809692 87.6988385 -0.01619385 88.69876099 -0.02453613 C92.47749873 0.02326628 95.12256797 0.11041738 98.47912598 1.9173584 C100.70141821 6.04546924 100.43500549 10.02145637 100.39648438 14.63867188 C100.40349365 15.66670929 100.41050293 16.6947467 100.41772461 17.75393677 C100.43534015 21.1545914 100.42366868 24.55441492 100.41015625 27.95507812 C100.41285013 30.3163265 100.41673167 32.67757379 100.42175293 35.03881836 C100.42765283 39.9885514 100.41906885 44.9379958 100.40039062 49.88769531 C100.37760123 56.23678055 100.39072162 62.58518947 100.41468048 68.93424988 C100.42912492 73.81039539 100.42453859 78.6863802 100.41416931 83.56253052 C100.4114983 85.9037382 100.41478487 88.2449604 100.42408752 90.58615112 C100.43423041 93.85665617 100.4187825 97.12606138 100.39648438 100.39648438 C100.4045813 101.36699738 100.41267822 102.33751038 100.42102051 103.33743286 C100.3732181 107.11617061 100.286067 109.76123984 98.47912598 113.11779785 C94.35101514 115.34009009 90.375028 115.07367736 85.7578125 115.03515625 C84.21575638 115.04567017 84.21575638 115.04567017 82.64254761 115.05639648 C79.24189298 115.07401202 75.84206945 115.06234056 72.44140625 115.04882812 C70.08015788 115.051522 67.71891059 115.05540355 65.35766602 115.0604248 C60.40793297 115.0663247 55.45848857 115.05774072 50.50878906 115.0390625 C44.15970383 115.0162731 37.81129491 115.02939349 31.4622345 115.05335236 C26.58608898 115.0677968 21.71010418 115.06321047 16.83395386 115.05284119 C14.49274618 115.05017017 12.15152397 115.05345675 9.81033325 115.0627594 C6.5398282 115.07290229 3.27042299 115.05745437 0 115.03515625 C-1.4557695 115.04730164 -1.4557695 115.04730164 -2.94094849 115.05969238 C-6.71968623 115.01188997 -9.36475547 114.92473887 -12.72131348 113.11779785 C-14.94360571 108.98968701 -14.67719299 105.01369988 -14.63867188 100.39648438 C-14.64568115 99.36844696 -14.65269043 98.34040955 -14.65991211 97.28121948 C-14.67752765 93.88056485 -14.66585618 90.48074133 -14.65234375 87.08007812 C-14.65503763 84.71882975 -14.65891917 82.35758246 -14.66394043 79.99633789 C-14.66984033 75.04660485 -14.66125635 70.09716045 -14.64257812 65.14746094 C-14.61978873 58.7983757 -14.63290912 52.44996678 -14.65686798 46.10090637 C-14.67131242 41.22476086 -14.66672609 36.34877605 -14.65635681 31.47262573 C-14.6536858 29.13141805 -14.65697237 26.79019585 -14.66627502 24.44900513 C-14.67641791 21.17850008 -14.66097 17.90909487 -14.63867188 14.63867188 C-14.6467688 13.66815887 -14.65486572 12.69764587 -14.66320801 11.69772339 C-14.6154056 7.91898564 -14.5282545 5.27391641 -12.72131348 1.9173584 C-8.59320264 -0.30493384 -4.6172155 -0.03852111 0 0 Z " fill="#73DAF0" transform="translate(213.12109375,182.482421875)"/>
<path d="M0 0 C1.31851456 -0.01496269 1.31851456 -0.01496269 2.66366577 -0.03022766 C3.63044754 -0.03089233 4.59722931 -0.03155701 5.5933075 -0.03224182 C6.60969299 -0.04056534 7.62607849 -0.04888885 8.67326355 -0.0574646 C12.0472848 -0.08164225 15.42111299 -0.09034664 18.79521179 -0.09693909 C21.13450175 -0.10590017 23.4737911 -0.11502191 25.81307983 -0.1242981 C30.72339778 -0.14081224 35.63364735 -0.14849251 40.54399109 -0.15138245 C46.83926775 -0.1567658 53.13390259 -0.19443433 59.42899799 -0.24012661 C64.26312612 -0.26985625 69.09709904 -0.27710514 73.93131065 -0.2781086 C76.25218327 -0.28231974 78.57305598 -0.2947896 80.89383888 -0.31562614 C84.14049664 -0.34245184 87.38565838 -0.33774027 90.63237 -0.32521057 C91.59307907 -0.34004486 92.55378815 -0.35487915 93.54360962 -0.37016296 C97.82670753 -0.32304174 100.20350816 -0.09910546 103.90438843 2.19015503 C106.60820321 6.57300876 106.49376704 10.15749447 106.42216492 15.21751404 C106.42771393 16.21483047 106.43326294 17.21214691 106.4389801 18.23968506 C106.45078079 21.53291526 106.42649574 24.82477089 106.40068054 28.11790466 C106.3989695 30.40806516 106.39903505 32.69822761 106.40080261 34.98838806 C106.39914912 39.78679658 106.38044489 44.58473805 106.34892273 49.38304138 C106.30924552 55.53351746 106.30487741 61.68338172 106.31238556 67.83396149 C106.3154552 72.56260278 106.30333485 77.29110655 106.28625488 82.01971436 C106.27922389 84.28751767 106.27610047 86.55533658 106.27694702 88.82315063 C106.2751492 91.99265204 106.2537678 95.1614206 106.22685242 98.33079529 C106.22978302 99.26808975 106.23271362 100.20538422 106.23573303 101.17108154 C106.17288406 105.96820913 106.07672804 109.47363159 102.80693054 113.27415466 C99.95418096 114.99332574 97.83772277 115.52559446 94.52520752 115.53485107 C93.6771051 115.54193588 92.82900269 115.54902069 91.9552002 115.55632019 C90.5719178 115.55260406 90.5719178 115.55260406 89.16069031 115.54881287 C88.18302704 115.5539238 87.20536377 115.55903473 86.19807434 115.56430054 C82.9647663 115.57820601 79.73167119 115.57723906 76.49833679 115.57493591 C74.25158611 115.57882224 72.00483615 115.58315678 69.75808716 115.58792114 C65.0480257 115.59538536 60.3380392 115.59509053 55.62797546 115.58982849 C49.59074219 115.58403284 43.5538156 115.60096639 37.51663303 115.62417316 C32.87638555 115.63890127 28.23621208 115.63978346 23.59594536 115.63666344 C21.36999339 115.63717709 19.14403732 115.64242297 16.91810799 115.65247536 C13.80605736 115.66480466 10.69460626 115.65806891 7.58256531 115.64646912 C6.66240128 115.65411285 5.74223724 115.66175659 4.79418945 115.66963196 C0.0236934 115.63030786 -3.40834839 115.51900007 -7.19306946 112.27415466 C-8.9128622 109.42177035 -9.44450952 107.30485102 -9.45376587 103.99243164 C-9.46085068 103.14432922 -9.46793549 102.29622681 -9.47523499 101.42242432 C-9.47275757 100.50023605 -9.47028015 99.57804779 -9.46772766 98.62791443 C-9.47283859 97.65025116 -9.47794952 96.67258789 -9.48321533 95.66529846 C-9.49712081 92.43199042 -9.49615386 89.19889531 -9.49385071 85.96556091 C-9.49773703 83.71881023 -9.50207157 81.47206028 -9.50683594 79.22531128 C-9.51430015 74.51524982 -9.51400533 69.80526332 -9.50874329 65.09519958 C-9.50294764 59.05796631 -9.51988119 53.02103972 -9.54308796 46.98385715 C-9.55781606 42.34360967 -9.55869826 37.7034362 -9.55557823 33.06316948 C-9.55609188 30.83721751 -9.56133777 28.61126144 -9.57139015 26.38533211 C-9.58371945 23.27328148 -9.57698371 20.16183038 -9.56538391 17.04978943 C-9.57302765 16.1296254 -9.58067139 15.20946136 -9.58854675 14.26141357 C-9.53206834 7.40988845 -8.1309175 0.04936612 0 0 Z M5.80693054 15.27415466 C5.80693054 43.32415466 5.80693054 71.37415466 5.80693054 100.27415466 C33.85693054 100.27415466 61.90693054 100.27415466 90.80693054 100.27415466 C90.80693054 72.22415466 90.80693054 44.17415466 90.80693054 15.27415466 C62.75693054 15.27415466 34.70693054 15.27415466 5.80693054 15.27415466 Z " fill="#050505" transform="translate(340.1930694580078,82.72584533691406)"/>
<path d="M0 0 C1.54205612 -0.01051392 1.54205612 -0.01051392 3.11526489 -0.02124023 C6.51591952 -0.03885577 9.91574305 -0.02718431 13.31640625 -0.01367188 C15.67765462 -0.01636575 18.03890191 -0.0202473 20.40014648 -0.02526855 C25.34987953 -0.03116845 30.29932393 -0.02258447 35.24902344 -0.00390625 C41.59810867 0.01888315 47.94651759 0.00576276 54.295578 -0.01819611 C59.17172352 -0.03264055 64.04770832 -0.02805422 68.92385864 -0.01768494 C71.26506632 -0.01501392 73.60628853 -0.0183005 75.94747925 -0.02760315 C79.2179843 -0.03774604 82.48738951 -0.02229812 85.7578125 0 C86.7283255 -0.00809692 87.6988385 -0.01619385 88.69876099 -0.02453613 C92.47749873 0.02326628 95.12256797 0.11041738 98.47912598 1.9173584 C100.70141821 6.04546924 100.43500549 10.02145637 100.39648438 14.63867188 C100.40349365 15.66670929 100.41050293 16.6947467 100.41772461 17.75393677 C100.43534015 21.1545914 100.42366868 24.55441492 100.41015625 27.95507812 C100.41285013 30.3163265 100.41673167 32.67757379 100.42175293 35.03881836 C100.42765283 39.9885514 100.41906885 44.9379958 100.40039062 49.88769531 C100.37760123 56.23678055 100.39072162 62.58518947 100.41468048 68.93424988 C100.42912492 73.81039539 100.42453859 78.6863802 100.41416931 83.56253052 C100.4114983 85.9037382 100.41478487 88.2449604 100.42408752 90.58615112 C100.43423041 93.85665617 100.4187825 97.12606138 100.39648438 100.39648438 C100.4045813 101.36699738 100.41267822 102.33751038 100.42102051 103.33743286 C100.3732181 107.11617061 100.286067 109.76123984 98.47912598 113.11779785 C94.35101514 115.34009009 90.375028 115.07367736 85.7578125 115.03515625 C84.21575638 115.04567017 84.21575638 115.04567017 82.64254761 115.05639648 C79.24189298 115.07401202 75.84206945 115.06234056 72.44140625 115.04882812 C70.08015788 115.051522 67.71891059 115.05540355 65.35766602 115.0604248 C60.40793297 115.0663247 55.45848857 115.05774072 50.50878906 115.0390625 C44.15970383 115.0162731 37.81129491 115.02939349 31.4622345 115.05335236 C26.58608898 115.0677968 21.71010418 115.06321047 16.83395386 115.05284119 C14.49274618 115.05017017 12.15152397 115.05345675 9.81033325 115.0627594 C6.5398282 115.07290229 3.27042299 115.05745437 0 115.03515625 C-1.4557695 115.04730164 -1.4557695 115.04730164 -2.94094849 115.05969238 C-6.71968623 115.01188997 -9.36475547 114.92473887 -12.72131348 113.11779785 C-14.94360571 108.98968701 -14.67719299 105.01369988 -14.63867188 100.39648438 C-14.64568115 99.36844696 -14.65269043 98.34040955 -14.65991211 97.28121948 C-14.67752765 93.88056485 -14.66585618 90.48074133 -14.65234375 87.08007812 C-14.65503763 84.71882975 -14.65891917 82.35758246 -14.66394043 79.99633789 C-14.66984033 75.04660485 -14.66125635 70.09716045 -14.64257812 65.14746094 C-14.61978873 58.7983757 -14.63290912 52.44996678 -14.65686798 46.10090637 C-14.67131242 41.22476086 -14.66672609 36.34877605 -14.65635681 31.47262573 C-14.6536858 29.13141805 -14.65697237 26.79019585 -14.66627502 24.44900513 C-14.67641791 21.17850008 -14.66097 17.90909487 -14.63867188 14.63867188 C-14.6467688 13.66815887 -14.65486572 12.69764587 -14.66320801 11.69772339 C-14.6154056 7.91898564 -14.5282545 5.27391641 -12.72131348 1.9173584 C-8.59320264 -0.30493384 -4.6172155 -0.03852111 0 0 Z M0.87890625 15.51757812 C0.87890625 43.23757812 0.87890625 70.95757812 0.87890625 99.51757812 C28.59890625 99.51757812 56.31890625 99.51757812 84.87890625 99.51757812 C84.87890625 71.79757813 84.87890625 44.07757813 84.87890625 15.51757812 C57.15890625 15.51757812 29.43890625 15.51757812 0.87890625 15.51757812 Z " fill="#010202" transform="translate(213.12109375,182.482421875)"/>
<path d="M0 0 C10.56 0 21.12 0 32 0 C32.4375 14.3125 32.4375 14.3125 32.56811523 18.81762695 C32.6252771 20.57272583 32.6252771 20.57272583 32.68359375 22.36328125 C32.73858032 24.16212769 32.73858032 24.16212769 32.79467773 25.99731445 C32.87733025 29.04994349 32.87733025 29.04994349 34 32 C37.74265829 33.63506209 42.10750588 33.14359434 46.125 33.1328125 C46.90891113 33.13376923 47.69282227 33.13472595 48.50048828 33.13571167 C50.15462321 33.13639088 51.80876084 33.13455469 53.46289062 33.13037109 C55.99094647 33.12501917 58.51882466 33.13032485 61.046875 33.13671875 C62.65625039 33.13605792 64.26562567 33.13477666 65.875 33.1328125 C66.6292627 33.13483673 67.38352539 33.13686096 68.16064453 33.13894653 C73.19909598 33.24137185 73.19909598 33.24137185 78 32 C79.12183708 28.63448877 79.20800968 25.90939768 79.31640625 22.36328125 C79.35451416 21.19321533 79.39262207 20.02314941 79.43188477 18.81762695 C79.47498779 17.33093506 79.51809082 15.84424316 79.5625 14.3125 C79.706875 9.589375 79.85125 4.86625 80 0 C90.56 0 101.12 0 112 0 C112.85741866 6.60161328 113.71291096 13.20341681 114.56347656 19.8059082 C114.85335559 22.05149793 115.14436234 24.29694237 115.43652344 26.54223633 C115.85649074 29.77127062 116.27238762 33.00080719 116.6875 36.23046875 C116.81874268 37.23272995 116.94998535 38.23499115 117.08520508 39.2676239 C117.20532959 40.20822159 117.3254541 41.14881927 117.44921875 42.11791992 C117.55580811 42.94176682 117.66239746 43.76561371 117.7722168 44.61442566 C118.00633082 47.0663027 118 49.5369713 118 52 C77.08 52 36.16 52 -6 52 C-5.32675727 45.26757271 -4.61573478 38.55195931 -3.80859375 31.8359375 C-3.69902847 30.91785309 -3.5894632 29.99976868 -3.47657776 29.05386353 C-3.13111105 26.16080151 -2.78432928 23.26789895 -2.4375 20.375 C-2.20108437 18.39714587 -1.96475546 16.41928138 -1.72851562 14.44140625 C-1.15350574 9.62746385 -0.57671243 4.81373994 0 0 Z " fill="#95C0D9" transform="translate(200,396)"/>
<path d="M0 0 C6.67016348 -0.72501777 11.45370374 1.31433924 17 5 C22.23196367 9.6745395 26.44793035 15.23258172 27.27450216 22.37047374 C27.37732071 25.19319623 27.3853736 28.0017576 27.36076355 30.82627869 C27.36332682 31.90623393 27.3658901 32.98618918 27.36853105 34.09887034 C27.37346615 37.71181816 27.35697998 41.32434663 27.34057617 44.93725586 C27.33972984 47.52938833 27.34020515 50.12152151 27.34190369 52.71365356 C27.34347443 58.2913591 27.33408616 63.86895911 27.31719017 69.44663811 C27.2927776 77.51094273 27.2849926 85.57519649 27.2812262 93.63953406 C27.27466525 106.72431789 27.25471378 119.80904551 27.22631836 132.89379883 C27.19876855 145.60212931 27.17753949 158.3104445 27.16479492 171.01879883 C27.16400675 171.8025396 27.16321858 172.58628037 27.16240653 173.39377087 C27.15849133 177.32568707 27.15470022 181.25760338 27.15097082 185.18951976 C27.11988601 217.79305447 27.06683646 250.39651877 27 283 C21.72 283 16.44 283 11 283 C11.00037703 281.64016872 11.00075405 280.28033745 11.0011425 278.87929916 C11.00876289 246.57021976 10.98543644 214.26132014 10.92420971 181.95230006 C10.91669403 177.97210669 10.90943847 173.99191289 10.90234375 170.01171875 C10.900927 169.21936295 10.89951025 168.42700714 10.89805056 167.61064056 C10.87575669 154.79560318 10.87451602 141.98064638 10.88111137 129.16559502 C10.88741249 116.00759938 10.87096004 102.8497727 10.83356392 89.69182801 C10.81121628 81.57829778 10.80643178 73.46515308 10.82440336 65.35161033 C10.83629905 59.12091992 10.816475 52.89069011 10.78504753 46.66007614 C10.77709829 44.110837 10.77930788 41.56154212 10.79260826 39.01232529 C10.86919279 22.97352971 10.39039447 12.73575161 0 0 Z " fill="#3A393D" transform="translate(470,32)"/>
<path d="M0 0 C71.61 0 143.22 0 217 0 C217 5.94 217 11.88 217 18 C145.39 18 73.78 18 0 18 C0 12.06 0 6.12 0 0 Z " fill="#BFE3EF" transform="translate(147,463)"/>
<path d="M0 0 C3.63 0 7.26 0 11 0 C11.32871094 0.7734375 11.65742187 1.546875 11.99609375 2.34375 C16.26127226 11.68321947 21.32117908 18.09172009 30.75 22.5 C38.85069423 25.30070514 46.97724896 25.22260641 54.875 21.875 C64.95971498 16.58417852 69.07573989 10.08799791 74 0 C77.63 0 81.26 0 85 0 C85 11.55 85 23.1 85 35 C56.95 35 28.9 35 0 35 C0 23.45 0 11.9 0 0 Z " fill="#F4E8D6" transform="translate(81,148)"/>
<path d="M0 0 C28.05 0 56.1 0 85 0 C85 11.55 85 23.1 85 35 C81.37 35 77.74 35 74 35 C73.67128906 34.2265625 73.34257812 33.453125 73.00390625 32.65625 C68.73872774 23.31678053 63.67882092 16.90827991 54.25 12.5 C45.7324856 9.5373863 36.52610535 9.79948321 28.34375 13.625 C19.3754797 18.88638525 15.01897933 25.54357804 11 35 C7.37 35 3.74 35 0 35 C0 23.45 0 11.9 0 0 Z " fill="#9E5D30" transform="translate(81,98)"/>
<path d="M0 0 C1.0209375 -0.01160156 1.0209375 -0.01160156 2.0625 -0.0234375 C4.68893772 0.51667671 5.50820334 1.13499573 7 3.375 C7.29296875 6.51171875 7.29296875 6.51171875 7.1875 10.0625 C7.16042969 11.24199219 7.13335937 12.42148438 7.10546875 13.63671875 C7.07066406 14.54035156 7.03585937 15.44398438 7 16.375 C7.73605469 16.34019531 8.47210938 16.30539063 9.23046875 16.26953125 C13.44600054 16.15258783 17.08618043 16.08257774 21.125 17.375 C23.53254668 19.94304979 23.86688203 21.9217366 24.34765625 25.33984375 C23.81624409 28.45069474 22.50502927 29.52595221 20 31.375 C15.93404512 31.90167809 12.11858117 31.55406875 8 31.375 C8 37.315 8 43.255 8 49.375 C10.3203125 49.2821875 10.3203125 49.2821875 12.6875 49.1875 C16.96240243 49.1814449 19.61890939 49.53924659 23 52.375 C24.42041821 55.21583641 24.31452272 57.22977278 24 60.375 C21.97070684 62.97202605 20.76130316 64.21750949 17.49804688 64.89257812 C16.58087891 64.89708984 15.66371094 64.90160156 14.71875 64.90625 C13.71199219 64.91140625 12.70523438 64.9165625 11.66796875 64.921875 C10.62253906 64.90640625 9.57710938 64.8909375 8.5 64.875 C7.45457031 64.89046875 6.40914063 64.9059375 5.33203125 64.921875 C4.32527344 64.91671875 3.31851562 64.9115625 2.28125 64.90625 C1.36408203 64.90173828 0.44691406 64.89722656 -0.49804688 64.89257812 C-3.73540273 64.22286751 -4.92038915 62.88600701 -7 60.375 C-8.38308781 57.60882437 -8.11210196 55.36482 -8.09765625 52.2734375 C-8.09443359 51.06171875 -8.09121094 49.85 -8.08789062 48.6015625 C-8.07951172 47.33054688 -8.07113281 46.05953125 -8.0625 44.75 C-8.05573242 42.831875 -8.05573242 42.831875 -8.04882812 40.875 C-8.03701203 37.70828708 -8.02053815 34.54166644 -8 31.375 C-8.81984375 31.42140625 -9.6396875 31.4678125 -10.484375 31.515625 C-12.10085937 31.56976563 -12.10085937 31.56976563 -13.75 31.625 C-15.35101563 31.69460937 -15.35101563 31.69460937 -16.984375 31.765625 C-20 31.375 -20 31.375 -22.35546875 29.578125 C-24 27.375 -24 27.375 -24.5625 23.875 C-24 20.375 -24 20.375 -22.25 17.9375 C-17.28218657 15.54912816 -12.41833171 16.06389961 -7 16.375 C-7.05220703 15.01955078 -7.05220703 15.01955078 -7.10546875 13.63671875 C-7.13253906 12.45722656 -7.15960938 11.27773437 -7.1875 10.0625 C-7.22230469 8.89074219 -7.25710937 7.71898437 -7.29296875 6.51171875 C-7 3.375 -7 3.375 -5.73828125 1.48046875 C-3.66232112 0.16025141 -2.4484873 -0.02782372 0 0 Z " fill="#030506" transform="translate(256,207.625)"/>
<path d="M0 0 C0.67293091 -0.0038269 1.34586182 -0.00765381 2.03918457 -0.01159668 C3.4579417 -0.0143113 4.87674927 -0.00698134 6.29541016 0.00976562 C8.46240203 0.03118725 10.62607951 0.00995462 12.79296875 -0.015625 C14.17448646 -0.01298164 15.5560021 -0.00785647 16.9375 0 C18.18982422 0.00451172 19.44214844 0.00902344 20.73242188 0.01367188 C24.52822832 0.62072601 25.72777645 1.45437957 27.96875 4.53125 C28.50451461 8.2816023 28.62493491 10.49167615 26.578125 13.734375 C22.50772033 16.53734828 18.53165813 15.95650996 13.71875 15.78125 C12.78289062 15.76320313 11.84703125 15.74515625 10.8828125 15.7265625 C8.57768562 15.67951909 6.27308646 15.60777778 3.96875 15.53125 C3.96875 18.83125 3.96875 22.13125 3.96875 25.53125 C4.78859375 25.48484375 5.6084375 25.4384375 6.453125 25.390625 C8.06960938 25.33648437 8.06960938 25.33648437 9.71875 25.28125 C11.31976563 25.21164063 11.31976563 25.21164063 12.953125 25.140625 C15.96875 25.53125 15.96875 25.53125 18.328125 27.328125 C20.70963203 30.52614872 20.5235973 32.6473189 19.96875 36.53125 C18.328125 38.734375 18.328125 38.734375 15.96875 40.53125 C12.953125 40.921875 12.953125 40.921875 9.71875 40.78125 C8.64109375 40.74515625 7.5634375 40.7090625 6.453125 40.671875 C5.63328125 40.62546875 4.8134375 40.5790625 3.96875 40.53125 C3.99493408 41.11092529 4.02111816 41.69060059 4.0480957 42.2878418 C4.15245612 44.93119875 4.21719327 47.57412199 4.28125 50.21875 C4.32314453 51.13076172 4.36503906 52.04277344 4.40820312 52.98242188 C4.49268505 57.62892755 4.48788218 59.82020694 1.67578125 63.671875 C-1.03125 65.53125 -1.03125 65.53125 -4.65625 65.59375 C-8.4018366 64.41458385 -9.10505694 63.81890725 -11.03125 60.53125 C-11.37182617 58.24121094 -11.37182617 58.24121094 -11.32421875 55.765625 C-11.31455078 54.87617188 -11.30488281 53.98671875 -11.29492188 53.0703125 C-11.26978516 52.14992187 -11.24464844 51.22953125 -11.21875 50.28125 C-11.20521484 49.34539062 -11.19167969 48.40953125 -11.17773438 47.4453125 C-11.14244954 45.14003673 -11.09315281 42.8359394 -11.03125 40.53125 C-11.81886719 40.38945312 -12.60648437 40.24765625 -13.41796875 40.1015625 C-16.03125 39.53125 -16.03125 39.53125 -17.84375 38.40625 C-19.76075563 35.37939901 -19.45918633 33.0158744 -19.03125 29.53125 C-17.28125 27.09375 -17.28125 27.09375 -15.03125 25.53125 C-13.71125 25.53125 -12.39125 25.53125 -11.03125 25.53125 C-11.0626709 24.60844238 -11.0626709 24.60844238 -11.09472656 23.66699219 C-11.17802017 20.87191191 -11.22995013 18.07709285 -11.28125 15.28125 C-11.31476563 14.31316406 -11.34828125 13.34507813 -11.3828125 12.34765625 C-11.39570313 11.41308594 -11.40859375 10.47851562 -11.421875 9.515625 C-11.44282227 8.65678711 -11.46376953 7.79794922 -11.48535156 6.91308594 C-10.26604597 0.51763144 -5.74438674 0.02069517 0 0 Z " fill="#010304" transform="translate(384.03125,107.46875)"/>
<path d="M0 0 C159.06 0 318.12 0 482 0 C482 35.71052632 482 35.71052632 475 44 C465.23920832 51.90339831 456.6473785 52.29333645 444.45326233 52.24050903 C442.95816727 52.24138167 441.46307251 52.24313373 439.96797937 52.24568737 C435.86778734 52.25015343 431.76770005 52.2421674 427.66752136 52.23213124 C423.24292692 52.22348838 418.8183383 52.2264175 414.39373779 52.22793579 C406.73053146 52.22898411 399.06735921 52.22271302 391.40416145 52.21146011 C380.32449005 52.19520093 369.24483512 52.18999668 358.16515308 52.18748413 C340.18878737 52.18310769 322.21243983 52.16979995 304.23608398 52.15087891 C286.77449637 52.1325188 269.31291368 52.11836293 251.85131836 52.10986328 C250.77485202 52.10933783 249.69838568 52.10881239 248.58929915 52.10827102 C243.1889439 52.10566093 237.78858861 52.10313352 232.3882333 52.10064721 C187.59214296 52.07991629 142.79607242 52.04469213 98 52 C98 51.67 98 51.34 98 51 C275.705 50.505 275.705 50.505 457 50 C457.66 48.68 458.32 47.36 459 46 C459.66 45.071875 460.32 44.14375 461 43.1875 C468.71110096 30.89793285 465.58263033 14.35582954 466 1 C312.22 1 158.44 1 0 1 C0 0.67 0 0.34 0 0 Z " fill="#8DB1BE" transform="translate(15,330)"/>
<path d="M0 0 C5.13586295 2.90415021 8.64424677 6.64398487 10.80859375 12.1640625 C11.86140198 17.10017977 11.245906 21.00368795 8.80859375 25.4140625 C5.42787223 30.16226688 1.34317988 33.41018224 -4.42578125 34.640625 C-9.53161546 34.97514517 -13.24415413 33.72850601 -17.39453125 30.7734375 C-21.12941019 27.42828506 -23.66510095 23.8701101 -24.6328125 18.89453125 C-24.92061868 13.44478197 -23.63088683 9.39241477 -20.19140625 5.1640625 C-14.54382324 -0.52775745 -7.75071641 -2.95660127 0 0 Z " fill="#545259" transform="translate(130.19140625,123.8359375)"/>
<path d="M0 0 C10.56 0 21.12 0 32 0 C32.85741866 6.60161328 33.71291096 13.20341681 34.56347656 19.8059082 C34.85335559 22.05149793 35.14436234 24.29694237 35.43652344 26.54223633 C35.85649074 29.77127062 36.27238762 33.00080719 36.6875 36.23046875 C36.81874268 37.23272995 36.94998535 38.23499115 37.08520508 39.2676239 C37.20532959 40.20822159 37.3254541 41.14881927 37.44921875 42.11791992 C37.55580811 42.94176682 37.66239746 43.76561371 37.7722168 44.61442566 C38.00633082 47.0663027 38 49.5369713 38 52 C-2.92 52 -43.84 52 -86 52 C-86 50.02 -86 48.04 -86 46 C-85.67 46 -85.34 46 -85 46 C-85 47.65 -85 49.3 -85 51 C-49.69 51 -14.38 51 22 51 C20.02 34.5 18.04 18 16 1 C10.72 1 5.44 1 0 1 C0 0.67 0 0.34 0 0 Z " fill="#7EAAC4" transform="translate(280,396)"/>
<path d="M0 0 C0.33 0 0.66 0 1 0 C1 5.61 1 11.22 1 17 C67.33 17 133.66 17 202 17 C202 11.39 202 5.78 202 0 C206.95 0 211.9 0 217 0 C217 5.94 217 11.88 217 18 C145.39 18 73.78 18 0 18 C0 12.06 0 6.12 0 0 Z " fill="#9EC7D6" transform="translate(147,463)"/>
<path d="M0 0 C5.94 0 11.88 0 18 0 C18 6.27 18 12.54 18 19 C12.06 19 6.12 19 0 19 C0 12.73 0 6.46 0 0 Z " fill="#90B9D0" transform="translate(247,396)"/>
</svg>
