<?xml version="1.0" encoding="UTF-8"?>
<svg version="1.1" xmlns="http://www.w3.org/2000/svg" width="512" height="512">
<path d="M0 0 C2.70701041 2.17673303 5.32860377 4.41116019 7.9140625 6.73046875 C8.55859375 7.30410156 9.203125 7.87773437 9.8671875 8.46875 C25.24267997 22.97850528 37.23727265 46.44113263 38.02758789 67.79833984 C38.02235107 68.85617676 38.01711426 69.91401367 38.01171875 71.00390625 C38.00849609 72.15761719 38.00527344 73.31132813 38.00195312 74.5 C37.99357422 75.68980469 37.98519531 76.87960938 37.9765625 78.10546875 C37.97205078 79.31847656 37.96753906 80.53148438 37.96289062 81.78125 C37.95114604 84.76437382 37.9347209 87.74739554 37.9140625 90.73046875 C38.6865332 90.39781006 39.45900391 90.06515137 40.25488281 89.72241211 C76.80517267 74.23885807 119.25993263 75.87861735 155.9140625 89.73046875 C156.5740625 90.06046875 157.2340625 90.39046875 157.9140625 90.73046875 C157.89311523 90.00158447 157.87216797 89.2727002 157.85058594 88.52172852 C157.09484685 58.15584486 162.41451535 33.78117953 183.765625 10.97265625 C184.47460938 10.23273437 185.18359375 9.4928125 185.9140625 8.73046875 C186.49929688 8.09367187 187.08453125 7.456875 187.6875 6.80078125 C202.43028311 -8.77258119 226.03031256 -18.98420411 247.328125 -19.60546875 C250.06541053 -19.64586385 252.80151989 -19.65202409 255.5390625 -19.64453125 C256.24994019 -19.64431976 256.96081787 -19.64410828 257.6932373 -19.64389038 C268.27097974 -19.61243208 277.91633055 -19.01868073 287.9140625 -15.26953125 C289.491875 -14.70878906 289.491875 -14.70878906 291.1015625 -14.13671875 C315.55384669 -4.71759907 335.59793252 13.89199647 346.2890625 37.79296875 C356.38916361 63.00030326 357.52257231 90.71052147 347.5390625 116.10546875 C346.68943588 117.99210189 345.81501328 119.86779924 344.9140625 121.73046875 C344.48480469 122.62894531 344.05554688 123.52742187 343.61328125 124.453125 C331.65243896 147.86942187 310.8529225 164.98694998 285.93359375 173.078125 C278.48651661 175.26751859 271.43047338 176.86668861 263.640625 176.828125 C262.48691406 176.82490234 261.33320313 176.82167969 260.14453125 176.81835938 C258.95472656 176.80998047 257.76492188 176.80160156 256.5390625 176.79296875 C255.32605469 176.78845703 254.11304688 176.78394531 252.86328125 176.77929688 C249.88015743 176.76755229 246.89713571 176.75112715 243.9140625 176.73046875 C244.24672119 177.50293945 244.57937988 178.27541016 244.92211914 179.07128906 C251.13351733 193.73384029 254.97525492 210.58998558 255.15234375 226.515625 C255.1621376 227.24544083 255.17193146 227.97525665 255.18202209 228.72718811 C255.42863629 251.88513554 254.51550663 275.52758049 243.9140625 296.73046875 C244.61265381 296.70952148 245.31124512 296.68857422 246.03100586 296.66699219 C276.07129393 295.88742981 301.08349097 302.29523587 323.9140625 322.73046875 C324.84605469 323.53871094 324.84605469 323.53871094 325.796875 324.36328125 C341.47357206 338.87334039 352.82650019 362.40991916 354.09106445 383.7121582 C354.4749245 403.32878314 353.56268551 419.84988452 344.9140625 437.73046875 C344.48480469 438.62894531 344.05554688 439.52742188 343.61328125 440.453125 C331.65243896 463.86942187 310.8529225 480.98694998 285.93359375 489.078125 C259.17251108 496.94571411 231.88647066 493.56436017 207.2890625 480.98046875 C183.96935773 467.70457125 167.56923333 446.1747208 160.3215332 420.43896484 C158.7149234 414.39999777 157.78546393 408.70737985 157.81640625 402.45703125 C157.81962891 401.30332031 157.82285156 400.14960938 157.82617188 398.9609375 C157.83455078 397.77113281 157.84292969 396.58132813 157.8515625 395.35546875 C157.85607422 394.14246094 157.86058594 392.92945313 157.86523438 391.6796875 C157.87697896 388.69656368 157.8934041 385.71354196 157.9140625 382.73046875 C157.1415918 383.06312744 156.36912109 383.39578613 155.57324219 383.73852539 C140.91069096 389.94992358 124.05454567 393.79166117 108.12890625 393.96875 C107.39909042 393.97854385 106.6692746 393.98833771 105.91734314 393.99842834 C82.75939571 394.24504254 59.11695076 393.33191288 37.9140625 382.73046875 C37.93500977 383.42906006 37.95595703 384.12765137 37.97753906 384.84741211 C38.75710144 414.88770018 32.34929538 439.89989722 11.9140625 462.73046875 C11.37523437 463.35179687 10.83640625 463.973125 10.28125 464.61328125 C-4.22880914 480.28997831 -27.76538791 491.64290644 -49.06762695 492.9074707 C-68.68425189 493.29133075 -85.20535327 492.37909176 -103.0859375 483.73046875 C-103.98441406 483.30121094 -104.88289063 482.87195313 -105.80859375 482.4296875 C-128.09903519 471.04392245 -145.81171213 451.16686712 -153.59375 427.27734375 C-159.41538738 408.34289207 -161.37388301 385.83158623 -155.0859375 366.73046875 C-154.88726074 366.10317871 -154.68858398 365.47588867 -154.48388672 364.82958984 C-147.35202071 342.67539633 -133.30653934 324.74300596 -114.0859375 311.73046875 C-112.91611328 310.92609375 -112.91611328 310.92609375 -111.72265625 310.10546875 C-92.06565092 297.41926699 -70.8197479 296.23045826 -48.0859375 296.73046875 C-48.42874756 295.89708984 -48.77155762 295.06371094 -49.12475586 294.20507812 C-63.80095404 258.16097439 -64.15837652 215.10446724 -49.09375 179.09838867 C-48.76117188 178.3169751 -48.42859375 177.53556152 -48.0859375 176.73046875 C-48.78452881 176.75141602 -49.48312012 176.77236328 -50.20288086 176.79394531 C-69.42449046 177.29275689 -85.56084137 176.20714645 -103.0859375 167.73046875 C-103.98441406 167.30121094 -104.88289063 166.87195313 -105.80859375 166.4296875 C-129.22489062 154.46884521 -146.34241873 133.66932875 -154.43359375 108.75 C-161.53015603 84.61151396 -160.06411546 58.42728829 -149.0859375 35.73046875 C-148.65667969 34.83199219 -148.22742188 33.93351562 -147.78515625 33.0078125 C-135.82431396 9.59151563 -115.0247975 -7.52601248 -90.10546875 -15.6171875 C-58.96338123 -24.77276434 -26.13473124 -19.22060614 0 0 Z M257.9140625 29.73046875 C254.73130945 33.8614323 254.83352025 36.3438062 255.4140625 41.41796875 C255.70635482 51.31693538 250.70014661 58.00473427 245.15087891 65.86206055 C243.89693997 67.75633505 242.88814284 69.68035622 241.9140625 71.73046875 C240.9240625 71.73046875 239.9340625 71.73046875 238.9140625 71.73046875 C237.57074596 69.73716033 236.23812238 67.73662009 234.9140625 65.73046875 C229.95543161 62.41990595 223.76023245 63.40233714 218.0390625 63.41796875 C216.86730469 63.40185547 215.69554687 63.38574219 214.48828125 63.36914062 C206.16355715 63.17266603 206.16355715 63.17266603 198.9140625 66.73046875 C196.16858979 72.0173928 195.34006501 76.54306683 195.09375 82.453125 C195.05675491 83.27212784 195.01975983 84.09113068 194.98164368 84.93495178 C194.88568312 87.55461423 194.82881253 90.17187068 194.7890625 92.79296875 C194.77404694 93.67797058 194.75903137 94.56297241 194.74356079 95.47479248 C194.44326788 108.96409978 194.44326788 108.96409978 201.04150391 120.22045898 C203.62220579 122.26868848 206.23212228 124.04970049 209.12011719 125.63574219 C210.9140625 126.73046875 210.9140625 126.73046875 213.50390625 129.50390625 C217.33150935 133.03994153 220.75474486 132.28619879 225.73046875 132.10546875 C229.70382985 131.63744094 232.43922754 130.66991152 235.9140625 128.73046875 C235.9140625 128.07046875 235.9140625 127.41046875 235.9140625 126.73046875 C236.81568115 127.05354004 237.7172998 127.37661133 238.64624023 127.70947266 C244.08028561 129.25108078 249.59098378 129.05532333 255.19921875 129.06640625 C256.96089638 129.07639145 256.96089638 129.07639145 258.75816345 129.08657837 C261.23337239 129.09667476 263.70860838 129.10139633 266.18383789 129.10107422 C269.96741371 129.10545815 273.74983257 129.14184151 277.53320312 129.1796875 C279.94270436 129.1855541 282.35221111 129.18952454 284.76171875 129.19140625 C286.45410423 129.2129628 286.45410423 129.2129628 288.18067932 129.23495483 C294.18694456 129.20002521 298.37546567 129.11618173 302.9140625 124.73046875 C305.98082901 119.98127945 307.14450026 114.6741834 308.46484375 109.23828125 C308.6873027 108.33351044 308.90976166 107.42873962 309.13896179 106.49655151 C309.60423546 104.58966189 310.06540758 102.68176734 310.52270508 100.77294922 C311.22374491 97.86714763 311.95215335 94.96908398 312.68164062 92.0703125 C313.13191103 90.21004672 313.58053382 88.34938122 314.02734375 86.48828125 C314.24699295 85.62969513 314.46664215 84.77110901 314.69294739 83.88650513 C316.02958361 78.13198386 315.90326348 74.32684084 313.9140625 68.73046875 C311.30979856 65.59199683 309.78317625 64.02017333 305.9140625 62.73046875 C304.57880533 62.65073399 303.23994167 62.62275537 301.90234375 62.6328125 C301.14501953 62.63603516 300.38769531 62.63925781 299.60742188 62.64257812 C298.82173828 62.65095703 298.03605469 62.65933594 297.2265625 62.66796875 C296.42927734 62.67248047 295.63199219 62.67699219 294.81054688 62.68164062 C292.84501993 62.69341025 290.87953165 62.71134527 288.9140625 62.73046875 C289.006875 60.93609375 289.006875 60.93609375 289.1015625 59.10546875 C289.06548191 47.68596168 286.27869809 37.88402133 278.7890625 29.29296875 C273.14660923 24.59092436 263.57832167 25.72404153 257.9140625 29.73046875 Z M-106.828125 32.1953125 C-111.00932625 37.63087412 -111.21223638 41.25028942 -111.26293945 48.03417969 C-111.26951065 48.76318481 -111.27608185 49.49218994 -111.28285217 50.24328613 C-111.30252566 52.65047317 -111.31423485 55.05759796 -111.32421875 57.46484375 C-111.32829428 58.28966499 -111.3323698 59.11448624 -111.33656883 59.96430206 C-111.35740489 64.33069099 -111.37171687 68.69704873 -111.38110352 73.06347656 C-111.39215885 77.5602607 -111.42655546 82.05654878 -111.46627522 86.55315781 C-111.49249042 90.02257166 -111.50079971 93.4918682 -111.50438499 96.96137238 C-111.5092388 98.61828204 -111.52081827 100.27518689 -111.53942299 101.93199921 C-111.82709334 113.93836654 -111.82709334 113.93836654 -107.0859375 124.73046875 C-101.98507939 129.7038054 -97.63028101 129.88040479 -90.76635742 129.89160156 C-90.035746 129.89656647 -89.30513458 129.90153137 -88.55238342 129.90664673 C-86.14038137 129.92122621 -83.72844509 129.92806343 -81.31640625 129.93359375 C-79.63495381 129.93934884 -77.95350137 129.94510652 -76.27204895 129.9508667 C-72.74736222 129.96136481 -69.22269821 129.9672152 -65.69799805 129.97070312 C-61.19223853 129.97618421 -56.68678174 130.00020893 -52.18111706 130.02867508 C-48.70745479 130.04734359 -45.23386482 130.05250931 -41.76015663 130.054039 C-40.09964659 130.05705674 -38.43913755 130.06505548 -36.77867699 130.07822418 C-34.45012063 130.09537271 -32.1222959 130.09338331 -29.79370117 130.08691406 C-29.11449615 130.09612885 -28.43529114 130.10534363 -27.73550415 130.11483765 C-22.75866299 130.07175351 -19.44042776 128.96934106 -15.0859375 126.73046875 C-9.91741016 121.42225148 -8.8375953 116.58922181 -8.79541016 109.31323242 C-8.78869293 108.58408127 -8.78197571 107.85493011 -8.77505493 107.10368347 C-8.75611414 104.70186478 -8.7521526 102.30032616 -8.75 99.8984375 C-8.74356877 98.22080879 -8.73684017 96.54318119 -8.72982788 94.86555481 C-8.71786451 91.35101727 -8.71414603 87.83657794 -8.71533203 84.32202148 C-8.71553504 79.83307531 -8.68824814 75.34476353 -8.65378761 70.85596752 C-8.63147584 67.39082485 -8.62749581 63.92583374 -8.62855148 60.4606266 C-8.62620138 58.80651987 -8.61741127 57.15240858 -8.60188675 55.49837303 C-8.34502775 43.50852518 -8.34502775 43.50852518 -13.0859375 32.73046875 C-18.18679561 27.7571321 -22.54159399 27.58053271 -29.40551758 27.56933594 C-30.136129 27.56437103 -30.86674042 27.55940613 -31.61949158 27.55429077 C-34.03149363 27.53971129 -36.44342991 27.53287407 -38.85546875 27.52734375 C-40.53692119 27.52158866 -42.21837363 27.51583098 -43.89982605 27.5100708 C-47.42451278 27.49957269 -50.94917679 27.4937223 -54.47387695 27.49023438 C-58.97963647 27.48475329 -63.48509326 27.46072857 -67.99075794 27.43226242 C-71.46442021 27.41359391 -74.93801018 27.40842819 -78.41171837 27.4068985 C-80.07222841 27.40388076 -81.73273745 27.39588202 -83.39319801 27.38271332 C-85.72175437 27.36556479 -88.0495791 27.36755419 -90.37817383 27.37402344 C-91.05737885 27.36480865 -91.73658386 27.35559387 -92.43637085 27.34609985 C-97.88487563 27.39326715 -102.59139251 28.63303743 -106.828125 32.1953125 Z M73.9140625 108.73046875 C73.02460938 109.48070312 73.02460938 109.48070312 72.1171875 110.24609375 C62.76012666 118.74470864 55.61529037 132.09246408 50.9140625 143.73046875 C51.75670305 145.95975109 51.75670305 145.95975109 54.22265625 146.6953125 C82.1942502 155.390602 116.37055428 157.2418842 143.9140625 145.73046875 C144.4090625 144.74046875 144.4090625 144.74046875 144.9140625 143.73046875 C143.87464097 141.21093528 142.77581448 138.83957907 141.5390625 136.41796875 C141.17546631 135.7024585 140.81187012 134.98694824 140.43725586 134.24975586 C132.38898576 118.78340878 122.081961 104.72518887 105.2890625 98.35546875 C92.76406849 96.03602542 83.21554137 100.42304106 73.9140625 108.73046875 Z M13.9140625 123.73046875 C13.9140625 124.39046875 13.9140625 125.05046875 13.9140625 125.73046875 C16.11524911 127.30019182 18.30626147 128.74859678 20.6015625 130.16796875 C21.22740234 130.56306641 21.85324219 130.95816406 22.49804688 131.36523438 C23.72866784 132.13968799 24.96283185 132.90854372 26.20068359 133.67138672 C27.70600935 134.60186593 29.19612982 135.55685065 30.68359375 136.515625 C32.92984887 137.96962538 32.92984887 137.96962538 35.9140625 137.73046875 C36.39875 136.6425 36.8834375 135.55453125 37.3828125 134.43359375 C41.54932339 125.24146511 46.05245513 116.96873625 51.9140625 108.73046875 C53.25968168 106.73836732 54.58732584 104.73525003 55.9140625 102.73046875 C42.98342399 102.73046875 23.59722856 115.89171527 13.9140625 123.73046875 Z M139.9140625 102.73046875 C140.254375 103.22933594 140.5946875 103.72820312 140.9453125 104.2421875 C148.22780966 115.03035484 154.74732614 125.77260544 159.9140625 137.73046875 C164.02763121 137.05172991 167.36853739 134.92492797 170.9140625 132.85546875 C171.53023438 132.50355469 172.14640625 132.15164062 172.78125 131.7890625 C177.55309586 129.05413666 177.55309586 129.05413666 181.9140625 125.73046875 C181.9140625 125.07046875 181.9140625 124.41046875 181.9140625 123.73046875 C179.80296574 122.07723722 177.70942866 120.57973117 175.4765625 119.10546875 C174.80858643 118.66323975 174.14061035 118.22101074 173.45239258 117.76538086 C163.17629704 111.14189772 151.85989092 105.54815801 139.9140625 102.73046875 Z M-3.30078125 138.79296875 C-10.8620155 146.79559128 -17.23053072 155.41734331 -23.0859375 164.73046875 C-23.45847656 165.32134277 -23.83101562 165.9122168 -24.21484375 166.52099609 C-35.42153051 184.74220034 -42.0859375 207.3927216 -42.0859375 228.73046875 C-22.2859375 228.73046875 -2.4859375 228.73046875 17.9140625 228.73046875 C18.5740625 219.82046875 19.2340625 210.91046875 19.9140625 201.73046875 C20.61672398 196.42465755 21.34433256 191.2328714 22.2890625 185.98046875 C22.50457764 184.72967529 22.72009277 183.47888184 22.94213867 182.19018555 C24.31843409 174.42022037 25.9465846 166.80787534 28.21484375 159.25 C29.04776885 156.68447023 29.04776885 156.68447023 28.9140625 153.73046875 C27.98207031 153.25738281 27.05007812 152.78429687 26.08984375 152.296875 C18.10009391 148.17394908 10.69587678 143.71181445 3.42578125 138.41796875 C0.06377042 136.15919942 -0.31134694 136.0091569 -3.30078125 138.79296875 Z M188.1015625 141.29296875 C181.26802239 145.95511137 174.28445737 149.97691184 166.9140625 153.73046875 C167.92073723 158.87072737 168.96244503 163.99973389 170.09765625 169.11328125 C172.36460599 179.41930748 174.34991333 189.69375082 175.6640625 200.16796875 C175.77935303 201.07627441 175.89464355 201.98458008 176.01342773 202.92041016 C177.02555883 211.5308032 177.40249716 220.03385798 177.9140625 228.73046875 C197.7140625 228.73046875 217.5140625 228.73046875 237.9140625 228.73046875 C237.9140625 198.30006363 224.31187138 168.69865232 204.9140625 145.73046875 C204.18316406 144.86421875 203.45226562 143.99796875 202.69921875 143.10546875 C199.89809316 139.8318699 199.89809316 139.8318699 196.9140625 136.73046875 C193.46133682 136.73046875 190.86337648 139.37657996 188.1015625 141.29296875 Z M44.9140625 160.73046875 C40.66005455 174.53856014 37.8952646 188.42064632 35.9140625 202.73046875 C35.80513672 203.51550781 35.69621094 204.30054688 35.58398438 205.109375 C34.63276626 213.07832113 34.9140625 220.54204322 34.9140625 228.73046875 C76.4940625 228.73046875 118.0740625 228.73046875 160.9140625 228.73046875 C160.91551326 215.38224765 160.91551326 215.38224765 159.7265625 202.23046875 C159.53235718 200.72347412 159.53235718 200.72347412 159.33422852 199.18603516 C157.57617695 186.30702873 155.33476389 172.99435004 150.9140625 160.73046875 C150.28540283 160.90175293 149.65674316 161.07303711 149.0090332 161.24951172 C146.08346275 162.04211573 143.15507422 162.82380516 140.2265625 163.60546875 C139.23849609 163.87488281 138.25042969 164.14429688 137.23242188 164.421875 C124.2149005 167.87636287 111.64319817 169.11076518 98.2265625 169.04296875 C97.47705322 169.04114594 96.72754395 169.03932312 95.95532227 169.03744507 C84.71400362 168.99144042 73.84489693 168.53403967 62.9140625 165.73046875 C61.69154785 165.41722656 61.69154785 165.41722656 60.44433594 165.09765625 C55.2379608 163.73692133 50.06953284 162.2722347 44.9140625 160.73046875 Z M-42.0859375 244.73046875 C-42.0859375 250.35690763 -41.89003035 255.28121529 -40.8984375 260.73046875 C-40.7653418 261.46322021 -40.63224609 262.19597168 -40.49511719 262.95092773 C-36.05617424 286.0915246 -25.94011775 307.28930473 -11.2109375 325.60546875 C-10.65132324 326.30220703 -10.09170898 326.99894531 -9.51513672 327.71679688 C-6.44633066 331.59243864 -6.44633066 331.59243864 -2.0859375 333.73046875 C0.13664368 332.32657368 2.15341901 330.89388359 4.2265625 329.29296875 C11.71804036 323.70803437 19.54630995 318.91434503 27.9140625 314.73046875 C27.67171875 313.72113281 27.429375 312.71179688 27.1796875 311.671875 C21.98148071 289.49966468 19.60489643 267.55672676 17.9140625 244.73046875 C-1.8859375 244.73046875 -21.6859375 244.73046875 -42.0859375 244.73046875 Z M34.9140625 244.73046875 C34.86126598 258.3807168 34.86126598 258.3807168 36.1015625 271.79296875 C36.22958252 272.74179932 36.35760254 273.69062988 36.48950195 274.66821289 C38.03120845 285.47611624 40.41221676 296.10987374 42.9140625 306.73046875 C47.66793586 306.16331764 52.15294558 305.20546427 56.77490234 303.96557617 C85.02992789 296.40657487 113.29396229 297.05538598 141.453125 304.609375 C145.26476846 305.61488557 149.00129088 306.26366356 152.9140625 306.73046875 C157.46693643 285.74570315 160.9140625 266.42824858 160.9140625 244.73046875 C119.3340625 244.73046875 77.7540625 244.73046875 34.9140625 244.73046875 Z M177.9140625 244.73046875 C177.2540625 253.64046875 176.5940625 262.55046875 175.9140625 271.73046875 C173.83045315 286.24628054 171.33430853 300.48550791 167.9140625 314.73046875 C168.69007813 315.11976563 169.46609375 315.5090625 170.265625 315.91015625 C177.32520763 319.56631241 183.79831727 323.56918349 190.15478516 328.35302734 C193.29462328 330.69202725 196.19666297 332.47515286 199.9140625 333.73046875 C221.72369001 309.1895421 237.9140625 278.24506912 237.9140625 244.73046875 C218.1140625 244.73046875 198.3140625 244.73046875 177.9140625 244.73046875 Z M49.9140625 322.73046875 C49.5840625 323.39046875 49.2540625 324.05046875 48.9140625 324.73046875 C49.5716464 326.78322037 49.5716464 326.78322037 50.6875 329.0625 C51.29960327 330.37492676 51.29960327 330.37492676 51.92407227 331.71386719 C52.37451904 332.6474707 52.82496582 333.58107422 53.2890625 334.54296875 C53.74659912 335.49333008 54.20413574 336.44369141 54.67553711 337.42285156 C62.66271092 353.65364909 73.04665314 368.47041692 90.5390625 375.10546875 C99.75123132 376.81142594 107.23489421 375.2021198 115.265625 370.29296875 C127.07301147 361.6147483 134.42116128 350.57825783 140.9140625 337.73046875 C141.23987305 337.0859375 141.56568359 336.44140625 141.90136719 335.77734375 C144.62024898 330.34617921 144.62024898 330.34617921 146.9140625 324.73046875 C146.01416139 322.36639594 146.01416139 322.36639594 142.80078125 321.546875 C112.66366498 312.23176634 79.70220394 311.40574245 49.9140625 322.73046875 Z M28.4296875 332.7421875 C27.74132812 333.17080078 27.05296875 333.59941406 26.34375 334.04101562 C25.62445313 334.49541016 24.90515625 334.94980469 24.1640625 335.41796875 C23.46023437 335.85302734 22.75640625 336.28808594 22.03125 336.73632812 C17.69578481 339.45606697 13.77045618 342.36521955 9.9140625 345.73046875 C12.99420122 349.04984154 16.36412626 351.55960207 20.1640625 353.98046875 C20.76814941 354.3667041 21.37223633 354.75293945 21.99462891 355.15087891 C26.6352832 358.05617742 31.39546155 360.65288934 36.2890625 363.10546875 C36.93004883 363.42676758 37.57103516 363.74806641 38.23144531 364.07910156 C46.34816628 368.55199434 46.34816628 368.55199434 54.9140625 368.73046875 C54.36878906 367.98925781 53.82351562 367.24804688 53.26171875 366.484375 C48.7402122 360.16972398 44.67573561 353.78521602 41.0390625 346.91796875 C40.67047119 346.22582275 40.30187988 345.53367676 39.92211914 344.82055664 C37.53982315 340.23164052 35.6485648 335.60125666 33.9140625 330.73046875 C31.44062077 330.73046875 30.51913405 331.4410223 28.4296875 332.7421875 Z M161.9140625 330.73046875 C161.5015625 331.72304688 161.0890625 332.715625 160.6640625 333.73828125 C155.26840854 346.51279669 148.87231419 358.33569929 140.9140625 369.73046875 C157.13534903 367.4131421 173.05767622 356.29801203 185.9140625 346.73046875 C182.24378573 342.80299456 178.45886169 339.89317935 173.9140625 337.04296875 C173.31078125 336.65302734 172.7075 336.26308594 172.0859375 335.86132812 C168.79676995 333.76984659 165.59038669 332.03250023 161.9140625 330.73046875 Z M-87.0859375 345.73046875 C-93.35991693 355.02525309 -93.31382881 366.71077689 -91.4375 377.4375 C-88.9015579 387.26698496 -84.11229077 394.71150542 -78.0859375 402.73046875 C-78.68019531 402.88604248 -79.27445313 403.04161621 -79.88671875 403.2019043 C-82.62364512 403.92683862 -85.3546091 404.67223222 -88.0859375 405.41796875 C-89.48779297 405.78438477 -89.48779297 405.78438477 -90.91796875 406.15820312 C-99.00263734 408.39138081 -106.43019864 411.3887267 -111.0859375 418.73046875 C-113.62505779 425.2418148 -113.49046231 431.38649816 -113.5234375 438.29296875 C-113.55630859 439.51177734 -113.58917969 440.73058594 -113.62304688 441.98632812 C-113.93647383 449.07672861 -113.93647383 449.07672861 -110.75 455.0625 C-108.17638014 456.98019247 -108.17638014 456.98019247 -105.0234375 456.85546875 C-101.25320328 455.41154926 -100.17830067 454.18936461 -98.0859375 450.73046875 C-97.65248645 447.58730199 -97.79939779 444.51773095 -97.9609375 441.35546875 C-98.45350897 429.6797006 -98.45350897 429.6797006 -96.0859375 424.73046875 C-93.43778079 423.37794957 -91.53080978 422.65911021 -88.7109375 421.98046875 C-87.99647461 421.78130859 -87.28201172 421.58214844 -86.54589844 421.37695312 C-82.17533232 420.17841467 -77.7592984 419.21343784 -73.3359375 418.23046875 C-69.53278174 417.32618579 -68.27610272 416.90766816 -65.3359375 414.16796875 C-63.93383195 411.89041724 -63.93383195 411.89041724 -64.0859375 409.73046875 C-63.1371875 409.75109375 -62.1884375 409.77171875 -61.2109375 409.79296875 C-58.17927467 409.95598701 -58.17927467 409.95598701 -56.0859375 408.73046875 C-55.93125 409.87515625 -55.93125 409.87515625 -55.7734375 411.04296875 C-54.99917319 414.06963832 -54.49658232 414.82537538 -52.0859375 416.73046875 C-49.34846051 417.75016147 -49.34846051 417.75016147 -46.2109375 418.484375 C-45.06109375 418.78150391 -43.91125 419.07863281 -42.7265625 419.38476562 C-41.52515625 419.68447266 -40.32375 419.98417969 -39.0859375 420.29296875 C-36.70966193 420.89341177 -34.33459486 421.49866383 -31.9609375 422.109375 C-30.90648438 422.37306885 -29.85203125 422.6367627 -28.765625 422.90844727 C-26.0859375 423.73046875 -26.0859375 423.73046875 -23.0859375 425.73046875 C-22.70117188 428.1730957 -22.70117188 428.1730957 -22.6796875 431.21875 C-22.65777344 432.31767578 -22.63585937 433.41660156 -22.61328125 434.54882812 C-22.60425781 435.70189453 -22.59523438 436.85496094 -22.5859375 438.04296875 C-22.56801599 440.31004038 -22.53722995 442.57705502 -22.4921875 444.84375 C-22.48509766 445.85219971 -22.47800781 446.86064941 -22.47070312 447.8996582 C-22.02067031 451.21065469 -21.11283009 453.08675963 -19.0859375 455.73046875 C-15.72419613 456.98458443 -15.72419613 456.98458443 -12.0859375 456.73046875 C-9.28557852 455.20688039 -9.28557852 455.20688039 -7.0859375 452.73046875 C-6.3520067 449.78263929 -6.3520067 449.78263929 -6.4921875 446.49609375 C-6.49605469 444.67464844 -6.49605469 444.67464844 -6.5 442.81640625 C-6.52835937 441.55054688 -6.55671875 440.2846875 -6.5859375 438.98046875 C-6.58335937 437.73007812 -6.58078125 436.4796875 -6.578125 435.19140625 C-6.65812719 427.62319953 -6.89309758 421.06856647 -11.5234375 414.77734375 C-20.09123735 407.66606987 -31.56167057 405.6188807 -42.0859375 402.73046875 C-40.6977488 399.78883079 -39.0801497 397.20151149 -37.2109375 394.54296875 C-29.9209705 383.55467703 -26.9187173 371.54011831 -28.5859375 358.35546875 C-30.40506786 349.88154503 -34.56961087 342.83787744 -41.828125 337.98046875 C-58.33086643 328.84400291 -74.53239025 331.54356033 -87.0859375 345.73046875 Z M217.9140625 349.73046875 C216.3671875 350.53484375 216.3671875 350.53484375 214.7890625 351.35546875 C207.06360165 357.73737119 203.11942136 365.86159306 201.9140625 375.73046875 C201.25042941 391.69913997 209.95360696 405.59250277 220.4140625 416.98046875 C222.23208661 418.91612971 224.06021828 420.83025524 225.9140625 422.73046875 C226.44684814 423.28951904 226.97963379 423.84856934 227.52856445 424.42456055 C231.74274918 428.76933408 236.22946386 432.46094693 241.1015625 436.04296875 C242.14860352 436.82897461 242.14860352 436.82897461 243.21679688 437.63085938 C250.2851868 442.9500085 250.2851868 442.9500085 258.9140625 443.73046875 C278.92109838 434.6980165 298.65538336 413.23635852 306.98046875 393.2734375 C310.43581331 383.8615994 311.12696291 374.37415794 307.1640625 364.91796875 C306.44727187 363.50479435 305.69822291 362.10740126 304.9140625 360.73046875 C304.56472656 360.10398437 304.21539062 359.4775 303.85546875 358.83203125 C299.53272459 351.981454 292.63675093 347.8158803 284.9140625 345.73046875 C274.42887377 344.72855072 266.67497056 346.21005962 257.4609375 351.0078125 C254.9140625 351.73046875 254.9140625 351.73046875 252.34375 350.8671875 C251.07917969 350.14982422 251.07917969 350.14982422 249.7890625 349.41796875 C239.76515927 343.8575969 227.82976653 343.73492678 217.9140625 349.73046875 Z " fill="#000000" transform="translate(158.0859375,19.26953125)"/>
<path d="M0 0 C23.76 0 47.52 0 72 0 C72 23.76 72 47.52 72 72 C48.24 72 24.48 72 0 72 C0 48.24 0 24.48 0 0 Z M44 16 C43.33333333 19 43.33333333 19 44 22 C45.93147423 24.64683505 47.41539097 25.7601604 50.4375 27 C53.1558188 27.21098318 53.1558188 27.21098318 55.75 25.4375 C58.15786277 23.13107266 58.15786277 23.13107266 59.125 20.0625 C59.27372362 16.82585317 59.27372362 16.82585317 56.9375 14.125 C54.17384476 11.80499009 54.17384476 11.80499009 50.9375 11.4375 C47.29306849 12.13536986 46.09110663 12.94376723 44 16 Z " fill="#000000" transform="translate(62,62)"/>
<path d="M0 0 C3.40635037 1.62113399 6.07799148 3.53495198 8.83984375 6.08984375 C11.50438618 8.53604673 11.50438618 8.53604673 14.65234375 8.46484375 C18.15125558 7.10812283 20.24488064 5.34754755 22.90625 2.75 C27.49146434 -0.98353306 32.30003076 -1.16148777 37.9921875 -1.03125 C42.28899179 -0.54423775 44.30685416 0.56486224 47.71484375 3.27734375 C51.46022667 8.30404188 52.96233671 12.9868977 52.71484375 19.27734375 C50.68308027 31.50699701 43.0659171 40.60248081 34.71484375 49.27734375 C33.90660156 50.13714844 33.09835937 50.99695313 32.265625 51.8828125 C20.93078667 63.6447091 20.93078667 63.6447091 14.71484375 66.27734375 C2.25820857 63.18252756 -11.67206457 46.80007586 -18.47265625 36.33984375 C-19.43958398 34.6690316 -20.38180296 32.983367 -21.28515625 31.27734375 C-21.62933594 30.65601563 -21.97351563 30.0346875 -22.328125 29.39453125 C-25.29487985 23.40530785 -26.27873752 16.34466236 -24.16015625 9.96484375 C-19.71226284 -0.08861395 -10.17686229 -3.21832397 0 0 Z " fill="#000000" transform="translate(400.28515625,380.72265625)"/>
<path d="M0 0 C4.09265342 6.13898013 3.27819458 14.10652946 3.4296875 21.27539062 C3.460625 22.09587891 3.4915625 22.91636719 3.5234375 23.76171875 C3.5531665 24.8748645 3.5531665 24.8748645 3.58349609 26.01049805 C4.10869042 28.51917835 5.03541368 29.40193201 7 31 C9.34938888 32.17469444 10.95073205 32.20034889 13.5703125 32.31640625 C14.91416016 32.37924805 14.91416016 32.37924805 16.28515625 32.44335938 C17.22230469 32.48267578 18.15945313 32.52199219 19.125 32.5625 C20.54232422 32.62727539 20.54232422 32.62727539 21.98828125 32.69335938 C24.32537092 32.79959072 26.6625683 32.90163176 29 33 C27.62518526 41.15156551 25.84078878 49.15974533 23.875 57.1875 C23.59785156 58.33025391 23.32070313 59.47300781 23.03515625 60.65039062 C22.35956637 63.43428684 21.6811383 66.21745713 21 69 C14.25564795 69.05074705 7.51134523 69.0857534 0.7668457 69.10986328 C-1.52711833 69.11991528 -3.82106957 69.1335589 -6.11499023 69.15087891 C-9.41393188 69.17516209 -12.71270397 69.18649123 -16.01171875 69.1953125 C-17.03585373 69.20563507 -18.05998871 69.21595764 -19.11515808 69.22659302 C-20.07577652 69.22674408 -21.03639496 69.22689514 -22.02612305 69.22705078 C-23.28854073 69.23371262 -23.28854073 69.23371262 -24.57646179 69.24050903 C-27 69 -27 69 -32 67 C-32 59.08 -32 51.16 -32 43 C-29.03 42.34 -26.06 41.68 -23 41 C-20.63687937 39.27838222 -20.63687937 39.27838222 -19.0625 36.875 C-18.41925781 35.988125 -17.77601563 35.10125 -17.11328125 34.1875 C-5.65273975 18.27790547 -5.65273975 18.27790547 0 0 Z " fill="#000000" transform="translate(429,64)"/>
<path d="M0 0 C3.80994057 2.19337216 5.83420517 4.29775137 7.6875 8.375 C9.83418986 18.47239306 8.33421581 27.57712789 3.05078125 36.3984375 C0.43827057 40.18620369 -2.50839426 42.83892951 -6.3125 45.375 C-10.10073811 45.59783754 -12.40551131 45.09246866 -15.40625 42.71875 C-22.6678815 35.24035338 -25.45382598 26.88120297 -25.75 16.5625 C-25.55818517 11.38968719 -25.10830593 7.75509596 -22.3125 3.375 C-15.54019606 -1.98640728 -8.03468616 -3.62614113 0 0 Z " fill="#000000" transform="translate(106.3125,368.625)"/>
<path d="M0 0 C4.29 0 8.58 0 13 0 C13 12.21 13 24.42 13 37 C8.71 37 4.42 37 0 37 C0 24.79 0 12.58 0 0 Z " fill="#000000" transform="translate(369,98)"/>
</svg>
